<svg width="367" height="446" viewBox="0 0 367 446" fill="none" xmlns="http://www.w3.org/2000/svg">
<g filter="url(#filter0_d_299_44)">
<rect x="50" y="50" width="267" height="346" rx="50" fill="#F4F4F4"/>
</g>
<rect x="127" y="294.18" width="110" height="32.9973" rx="16.4986" fill="#242424"/>
<path d="M156.76 307.927L152.804 318.836H150.531L146.568 307.927H148.848L151.611 316.322H151.724L154.48 307.927H156.76ZM158.756 318.836V307.927H160.879V318.836H158.756ZM159.828 306.244C159.459 306.244 159.142 306.121 158.876 305.875C158.616 305.624 158.486 305.326 158.486 304.98C158.486 304.63 158.616 304.331 158.876 304.085C159.142 303.834 159.459 303.709 159.828 303.709C160.197 303.709 160.512 303.834 160.773 304.085C161.038 304.331 161.17 304.63 161.17 304.98C161.17 305.326 161.038 305.624 160.773 305.875C160.512 306.121 160.197 306.244 159.828 306.244ZM168.438 319.057C167.363 319.057 166.437 318.827 165.661 318.368C164.889 317.904 164.292 317.253 163.871 316.415C163.454 315.572 163.246 314.585 163.246 313.453C163.246 312.335 163.454 311.351 163.871 310.498C164.292 309.646 164.88 308.981 165.632 308.503C166.39 308.024 167.275 307.785 168.289 307.785C168.904 307.785 169.501 307.887 170.078 308.091C170.656 308.294 171.175 308.614 171.634 309.049C172.093 309.485 172.455 310.051 172.721 310.747C172.986 311.438 173.118 312.279 173.118 313.268V314.021H164.446V312.43H171.037C171.037 311.871 170.924 311.377 170.696 310.946C170.469 310.51 170.15 310.167 169.738 309.916C169.33 309.665 168.852 309.54 168.303 309.54C167.706 309.54 167.185 309.686 166.74 309.98C166.3 310.269 165.959 310.648 165.718 311.116C165.481 311.58 165.363 312.085 165.363 312.629V313.872C165.363 314.601 165.49 315.221 165.746 315.733C166.007 316.244 166.369 316.635 166.833 316.905C167.297 317.17 167.839 317.302 168.459 317.302C168.862 317.302 169.229 317.246 169.56 317.132C169.891 317.014 170.178 316.838 170.419 316.606C170.661 316.374 170.846 316.088 170.973 315.747L172.983 316.109C172.822 316.701 172.533 317.219 172.117 317.665C171.705 318.105 171.186 318.448 170.561 318.694C169.941 318.936 169.233 319.057 168.438 319.057ZM177.82 318.836L174.61 307.927H176.804L178.942 315.939H179.049L181.194 307.927H183.388L185.519 315.903H185.625L187.749 307.927H189.944L186.74 318.836H184.574L182.358 310.96H182.195L179.979 318.836H177.82ZM200.426 319.078C199.735 319.078 199.11 318.95 198.551 318.694C197.993 318.434 197.55 318.058 197.223 317.565C196.901 317.073 196.74 316.469 196.74 315.754C196.74 315.139 196.859 314.632 197.096 314.234C197.332 313.836 197.652 313.522 198.054 313.29C198.457 313.058 198.907 312.882 199.404 312.764C199.901 312.646 200.408 312.556 200.924 312.494C201.577 312.418 202.107 312.357 202.515 312.309C202.922 312.257 203.218 312.174 203.402 312.061C203.587 311.947 203.679 311.763 203.679 311.507V311.457C203.679 310.837 203.504 310.356 203.154 310.015C202.808 309.674 202.292 309.504 201.605 309.504C200.891 309.504 200.327 309.663 199.915 309.98C199.508 310.292 199.226 310.64 199.07 311.024L197.074 310.569C197.311 309.907 197.657 309.371 198.111 308.964C198.57 308.552 199.098 308.254 199.695 308.069C200.292 307.88 200.919 307.785 201.577 307.785C202.013 307.785 202.474 307.837 202.962 307.942C203.454 308.041 203.914 308.226 204.34 308.496C204.771 308.765 205.123 309.151 205.398 309.653C205.673 310.15 205.81 310.797 205.81 311.592V318.836H203.736V317.345H203.651C203.514 317.62 203.308 317.889 203.033 318.155C202.758 318.42 202.406 318.64 201.975 318.815C201.544 318.99 201.028 319.078 200.426 319.078ZM200.888 317.373C201.475 317.373 201.977 317.257 202.394 317.025C202.815 316.793 203.135 316.49 203.353 316.116C203.575 315.737 203.686 315.333 203.686 314.902V313.496C203.611 313.571 203.464 313.642 203.246 313.709C203.033 313.77 202.789 313.825 202.515 313.872C202.24 313.915 201.972 313.955 201.712 313.993C201.452 314.026 201.234 314.054 201.059 314.078C200.647 314.13 200.27 314.218 199.929 314.341C199.593 314.464 199.323 314.641 199.12 314.873C198.921 315.101 198.821 315.404 198.821 315.782C198.821 316.308 199.016 316.706 199.404 316.976C199.792 317.241 200.287 317.373 200.888 317.373ZM210.762 304.291V318.836H208.638V304.291H210.762ZM215.743 304.291V318.836H213.619V304.291H215.743Z" fill="#DFDFDF"/>
<path d="M115.048 211.851V210.717H121.802V211.851H119.079V219.444H117.767V211.851H115.048ZM124.467 215.558V219.444H123.192V210.717H124.45V213.964H124.531C124.684 213.612 124.918 213.332 125.234 213.125C125.549 212.917 125.961 212.814 126.469 212.814C126.918 212.814 127.31 212.906 127.646 213.091C127.984 213.275 128.245 213.551 128.43 213.917C128.617 214.281 128.711 214.736 128.711 215.281V219.444H127.437V215.434C127.437 214.954 127.313 214.582 127.066 214.318C126.819 214.051 126.475 213.917 126.035 213.917C125.734 213.917 125.464 213.981 125.225 214.109C124.989 214.237 124.803 214.424 124.667 214.672C124.533 214.916 124.467 215.211 124.467 215.558ZM133.232 219.576C132.587 219.576 132.032 219.439 131.566 219.163C131.103 218.885 130.745 218.494 130.492 217.991C130.242 217.486 130.117 216.893 130.117 216.214C130.117 215.544 130.242 214.953 130.492 214.441C130.745 213.93 131.097 213.531 131.549 213.244C132.004 212.957 132.535 212.814 133.143 212.814C133.512 212.814 133.87 212.875 134.217 212.997C134.563 213.119 134.874 213.311 135.15 213.572C135.425 213.834 135.643 214.173 135.802 214.591C135.961 215.005 136.04 215.51 136.04 216.103V216.555H130.837V215.601H134.792C134.792 215.265 134.724 214.968 134.587 214.71C134.451 214.449 134.259 214.243 134.012 214.092C133.768 213.941 133.481 213.866 133.151 213.866C132.793 213.866 132.481 213.954 132.214 214.13C131.95 214.304 131.745 214.531 131.6 214.812C131.458 215.091 131.387 215.393 131.387 215.72V216.466C131.387 216.903 131.464 217.275 131.617 217.582C131.773 217.889 131.991 218.123 132.269 218.285C132.548 218.444 132.873 218.524 133.245 218.524C133.487 218.524 133.707 218.49 133.906 218.422C134.104 218.351 134.276 218.245 134.421 218.106C134.566 217.967 134.677 217.795 134.754 217.591L135.96 217.808C135.863 218.163 135.69 218.474 135.44 218.741C135.192 219.005 134.881 219.211 134.506 219.359C134.134 219.504 133.71 219.576 133.232 219.576ZM142.535 219.589C142.12 219.589 141.745 219.513 141.41 219.359C141.075 219.203 140.809 218.977 140.613 218.682C140.42 218.386 140.323 218.024 140.323 217.595C140.323 217.226 140.394 216.922 140.536 216.683C140.678 216.444 140.87 216.255 141.112 216.116C141.353 215.977 141.623 215.872 141.921 215.801C142.219 215.73 142.523 215.676 142.833 215.639C143.225 215.593 143.543 215.557 143.788 215.528C144.032 215.497 144.21 215.447 144.32 215.379C144.431 215.311 144.487 215.2 144.487 215.047V215.017C144.487 214.645 144.381 214.356 144.171 214.152C143.964 213.947 143.654 213.845 143.242 213.845C142.813 213.845 142.475 213.94 142.228 214.13C141.984 214.318 141.815 214.527 141.721 214.757L140.523 214.484C140.665 214.086 140.873 213.765 141.146 213.521C141.421 213.274 141.738 213.095 142.096 212.984C142.454 212.87 142.83 212.814 143.225 212.814C143.487 212.814 143.763 212.845 144.056 212.907C144.352 212.967 144.627 213.078 144.883 213.24C145.141 213.402 145.353 213.633 145.518 213.934C145.683 214.233 145.765 214.62 145.765 215.098V219.444H144.521V218.549H144.469C144.387 218.714 144.263 218.876 144.099 219.035C143.934 219.194 143.722 219.326 143.464 219.432C143.205 219.537 142.896 219.589 142.535 219.589ZM142.812 218.566C143.164 218.566 143.465 218.497 143.715 218.358C143.968 218.218 144.16 218.037 144.29 217.812C144.424 217.585 144.491 217.342 144.491 217.084V216.24C144.445 216.285 144.357 216.328 144.227 216.368C144.099 216.405 143.952 216.437 143.788 216.466C143.623 216.491 143.462 216.515 143.306 216.538C143.15 216.558 143.019 216.575 142.914 216.589C142.667 216.62 142.441 216.673 142.237 216.747C142.035 216.821 141.873 216.927 141.751 217.066C141.631 217.203 141.572 217.385 141.572 217.612C141.572 217.927 141.688 218.166 141.921 218.328C142.154 218.487 142.451 218.566 142.812 218.566ZM147.462 219.444V212.899H148.736V219.444H147.462ZM148.105 211.889C147.884 211.889 147.694 211.815 147.534 211.667C147.378 211.517 147.3 211.338 147.3 211.13C147.3 210.92 147.378 210.741 147.534 210.593C147.694 210.443 147.884 210.368 148.105 210.368C148.327 210.368 148.516 210.443 148.672 210.593C148.831 210.741 148.911 210.92 148.911 211.13C148.911 211.338 148.831 211.517 148.672 211.667C148.516 211.815 148.327 211.889 148.105 211.889ZM153.626 219.444V212.899H154.9V219.444H153.626ZM154.27 211.889C154.048 211.889 153.858 211.815 153.699 211.667C153.542 211.517 153.464 211.338 153.464 211.13C153.464 210.92 153.542 210.741 153.699 210.593C153.858 210.443 154.048 210.368 154.27 210.368C154.491 210.368 154.68 210.443 154.836 210.593C154.995 210.741 155.075 210.92 155.075 211.13C155.075 211.338 154.995 211.517 154.836 211.667C154.68 211.815 154.491 211.889 154.27 211.889ZM161.519 214.497L160.364 214.701C160.316 214.554 160.239 214.413 160.134 214.28C160.032 214.146 159.893 214.037 159.717 213.951C159.54 213.866 159.32 213.824 159.056 213.824C158.695 213.824 158.394 213.905 158.153 214.066C157.911 214.226 157.79 214.432 157.79 214.684C157.79 214.903 157.871 215.079 158.033 215.213C158.195 215.346 158.457 215.456 158.817 215.541L159.857 215.78C160.46 215.919 160.908 216.133 161.204 216.423C161.499 216.713 161.647 217.089 161.647 217.552C161.647 217.944 161.533 218.294 161.306 218.601C161.082 218.905 160.768 219.143 160.364 219.316C159.964 219.49 159.499 219.576 158.971 219.576C158.238 219.576 157.64 219.42 157.177 219.108C156.714 218.792 156.43 218.345 156.325 217.765L157.556 217.578C157.633 217.899 157.79 218.142 158.029 218.307C158.268 218.468 158.579 218.549 158.962 218.549C159.38 218.549 159.714 218.463 159.964 218.29C160.214 218.113 160.339 217.899 160.339 217.646C160.339 217.441 160.262 217.27 160.109 217.13C159.958 216.991 159.727 216.886 159.414 216.815L158.306 216.572C157.695 216.433 157.244 216.211 156.951 215.907C156.661 215.603 156.516 215.218 156.516 214.753C156.516 214.366 156.624 214.028 156.84 213.738C157.056 213.449 157.354 213.223 157.735 213.061C158.116 212.896 158.552 212.814 159.043 212.814C159.751 212.814 160.308 212.967 160.714 213.274C161.12 213.578 161.388 213.986 161.519 214.497ZM171.823 212.899L169.45 219.444H168.086L165.708 212.899H167.076L168.734 217.936H168.802L170.455 212.899H171.823ZM175.619 219.576C174.974 219.576 174.419 219.439 173.953 219.163C173.49 218.885 173.132 218.494 172.879 217.991C172.629 217.486 172.504 216.893 172.504 216.214C172.504 215.544 172.629 214.953 172.879 214.441C173.132 213.93 173.484 213.531 173.936 213.244C174.39 212.957 174.922 212.814 175.529 212.814C175.899 212.814 176.257 212.875 176.603 212.997C176.95 213.119 177.261 213.311 177.537 213.572C177.812 213.834 178.029 214.173 178.189 214.591C178.348 215.005 178.427 215.51 178.427 216.103V216.555H173.224V215.601H177.179C177.179 215.265 177.11 214.968 176.974 214.71C176.838 214.449 176.646 214.243 176.399 214.092C176.154 213.941 175.868 213.866 175.538 213.866C175.18 213.866 174.868 213.954 174.6 214.13C174.336 214.304 174.132 214.531 173.987 214.812C173.845 215.091 173.774 215.393 173.774 215.72V216.466C173.774 216.903 173.85 217.275 174.004 217.582C174.16 217.889 174.377 218.123 174.656 218.285C174.934 218.444 175.26 218.524 175.632 218.524C175.873 218.524 176.093 218.49 176.292 218.422C176.491 218.351 176.663 218.245 176.808 218.106C176.953 217.967 177.064 217.795 177.14 217.591L178.346 217.808C178.25 218.163 178.076 218.474 177.826 218.741C177.579 219.005 177.268 219.211 176.893 219.359C176.521 219.504 176.096 219.576 175.619 219.576ZM179.841 219.444V212.899H181.072V213.939H181.141C181.26 213.586 181.47 213.309 181.771 213.108C182.075 212.903 182.419 212.801 182.803 212.801C182.882 212.801 182.976 212.804 183.084 212.809C183.195 212.815 183.281 212.822 183.344 212.831V214.049C183.293 214.035 183.202 214.02 183.071 214.003C182.94 213.983 182.81 213.973 182.679 213.973C182.378 213.973 182.109 214.037 181.874 214.165C181.641 214.29 181.456 214.464 181.32 214.689C181.183 214.91 181.115 215.163 181.115 215.447V219.444H179.841ZM185.451 221.899C185.261 221.899 185.087 221.883 184.931 221.852C184.775 221.824 184.658 221.792 184.582 221.758L184.888 220.714C185.121 220.777 185.329 220.804 185.511 220.795C185.692 220.787 185.853 220.718 185.992 220.591C186.134 220.463 186.259 220.254 186.367 219.964L186.525 219.53L184.13 212.899H185.494L187.151 217.978H187.219L188.877 212.899H190.245L187.548 220.318C187.423 220.659 187.263 220.947 187.07 221.183C186.877 221.422 186.647 221.601 186.38 221.72C186.113 221.839 185.803 221.899 185.451 221.899ZM194.618 221.899V212.899H195.863V213.96H195.969C196.043 213.824 196.15 213.666 196.289 213.487C196.428 213.308 196.621 213.152 196.868 213.018C197.115 212.882 197.442 212.814 197.848 212.814C198.377 212.814 198.848 212.947 199.263 213.214C199.678 213.481 200.003 213.866 200.239 214.369C200.478 214.872 200.597 215.477 200.597 216.184C200.597 216.892 200.479 217.498 200.243 218.004C200.007 218.507 199.684 218.895 199.272 219.167C198.86 219.437 198.39 219.572 197.861 219.572C197.463 219.572 197.138 219.505 196.885 219.372C196.635 219.238 196.439 219.082 196.297 218.903C196.155 218.724 196.046 218.565 195.969 218.426H195.892V221.899H194.618ZM195.867 216.172C195.867 216.632 195.934 217.035 196.067 217.382C196.201 217.728 196.394 218 196.647 218.196C196.9 218.389 197.209 218.486 197.576 218.486C197.956 218.486 198.275 218.385 198.53 218.183C198.786 217.978 198.979 217.701 199.11 217.352C199.243 217.003 199.31 216.609 199.31 216.172C199.31 215.74 199.245 215.352 199.114 215.008C198.986 214.665 198.793 214.393 198.534 214.194C198.279 213.995 197.959 213.896 197.576 213.896C197.206 213.896 196.894 213.991 196.638 214.182C196.385 214.372 196.194 214.638 196.063 214.978C195.932 215.319 195.867 215.717 195.867 216.172ZM204.782 219.576C204.168 219.576 203.632 219.436 203.175 219.155C202.718 218.873 202.363 218.48 202.11 217.974C201.857 217.468 201.73 216.878 201.73 216.201C201.73 215.522 201.857 214.929 202.11 214.42C202.363 213.912 202.718 213.517 203.175 213.236C203.632 212.954 204.168 212.814 204.782 212.814C205.395 212.814 205.931 212.954 206.388 213.236C206.846 213.517 207.201 213.912 207.453 214.42C207.706 214.929 207.833 215.522 207.833 216.201C207.833 216.878 207.706 217.468 207.453 217.974C207.201 218.48 206.846 218.873 206.388 219.155C205.931 219.436 205.395 219.576 204.782 219.576ZM204.786 218.507C205.184 218.507 205.513 218.402 205.775 218.191C206.036 217.981 206.229 217.701 206.354 217.352C206.482 217.003 206.546 216.618 206.546 216.197C206.546 215.78 206.482 215.396 206.354 215.047C206.229 214.694 206.036 214.412 205.775 214.199C205.513 213.986 205.184 213.879 204.786 213.879C204.385 213.879 204.053 213.986 203.789 214.199C203.527 214.412 203.333 214.694 203.205 215.047C203.08 215.396 203.017 215.78 203.017 216.197C203.017 216.618 203.08 217.003 203.205 217.352C203.333 217.701 203.527 217.981 203.789 218.191C204.053 218.402 204.385 218.507 204.786 218.507ZM210.475 219.444L208.549 212.899H209.865L211.148 217.706H211.212L212.499 212.899H213.816L215.094 217.684H215.158L216.432 212.899H217.749L215.827 219.444H214.527L213.198 214.718H213.1L211.77 219.444H210.475ZM221.58 219.576C220.935 219.576 220.38 219.439 219.914 219.163C219.451 218.885 219.093 218.494 218.84 217.991C218.59 217.486 218.465 216.893 218.465 216.214C218.465 215.544 218.59 214.953 218.84 214.441C219.093 213.93 219.445 213.531 219.897 213.244C220.351 212.957 220.882 212.814 221.49 212.814C221.86 212.814 222.218 212.875 222.564 212.997C222.911 213.119 223.222 213.311 223.498 213.572C223.773 213.834 223.99 214.173 224.15 214.591C224.309 215.005 224.388 215.51 224.388 216.103V216.555H219.185V215.601H223.14C223.14 215.265 223.071 214.968 222.935 214.71C222.799 214.449 222.607 214.243 222.36 214.092C222.115 213.941 221.828 213.866 221.499 213.866C221.141 213.866 220.828 213.954 220.561 214.13C220.297 214.304 220.093 214.531 219.948 214.812C219.806 215.091 219.735 215.393 219.735 215.72V216.466C219.735 216.903 219.811 217.275 219.965 217.582C220.121 217.889 220.338 218.123 220.617 218.285C220.895 218.444 221.221 218.524 221.593 218.524C221.834 218.524 222.054 218.49 222.253 218.422C222.452 218.351 222.624 218.245 222.769 218.106C222.914 217.967 223.025 217.795 223.101 217.591L224.307 217.808C224.211 218.163 224.037 218.474 223.787 218.741C223.54 219.005 223.229 219.211 222.854 219.359C222.482 219.504 222.057 219.576 221.58 219.576ZM225.802 219.444V212.899H227.033V213.939H227.102C227.221 213.586 227.431 213.309 227.732 213.108C228.036 212.903 228.38 212.801 228.763 212.801C228.843 212.801 228.937 212.804 229.045 212.809C229.156 212.815 229.242 212.822 229.305 212.831V214.049C229.254 214.035 229.163 214.02 229.032 214.003C228.901 213.983 228.771 213.973 228.64 213.973C228.339 213.973 228.07 214.037 227.835 214.165C227.602 214.29 227.417 214.464 227.281 214.689C227.144 214.91 227.076 215.163 227.076 215.447V219.444H225.802ZM233.909 212.899V213.922H230.21V212.899H233.909ZM231.224 219.444V212.14C231.224 211.731 231.314 211.392 231.493 211.122C231.672 210.849 231.909 210.646 232.205 210.513C232.5 210.376 232.821 210.308 233.168 210.308C233.423 210.308 233.642 210.329 233.824 210.372C234.006 210.412 234.141 210.449 234.229 210.483L233.93 211.514C233.871 211.497 233.794 211.477 233.7 211.454C233.607 211.429 233.493 211.416 233.359 211.416C233.05 211.416 232.828 211.493 232.695 211.646C232.564 211.799 232.499 212.021 232.499 212.311V219.444H231.224ZM239.37 216.73V212.899H240.648V219.444H239.396V218.311H239.327C239.177 218.66 238.935 218.951 238.603 219.184C238.273 219.415 237.863 219.53 237.371 219.53C236.951 219.53 236.579 219.437 236.255 219.253C235.934 219.065 235.681 218.788 235.496 218.422C235.315 218.055 235.224 217.602 235.224 217.062V212.899H236.498V216.909C236.498 217.355 236.621 217.71 236.869 217.974C237.116 218.238 237.437 218.37 237.832 218.37C238.07 218.37 238.308 218.311 238.543 218.191C238.782 218.072 238.979 217.892 239.136 217.65C239.295 217.409 239.373 217.102 239.37 216.73ZM243.635 210.717V219.444H242.36V210.717H243.635ZM246.623 210.717V219.444H245.349V210.717H246.623ZM110.281 234.444V225.717H111.555V228.96H111.632C111.706 228.824 111.812 228.666 111.952 228.487C112.091 228.308 112.284 228.152 112.531 228.018C112.778 227.882 113.105 227.814 113.511 227.814C114.04 227.814 114.511 227.947 114.926 228.214C115.341 228.481 115.666 228.866 115.902 229.369C116.14 229.872 116.26 230.477 116.26 231.184C116.26 231.892 116.142 232.498 115.906 233.004C115.67 233.507 115.346 233.895 114.934 234.167C114.523 234.437 114.052 234.572 113.524 234.572C113.126 234.572 112.801 234.505 112.548 234.372C112.298 234.238 112.102 234.082 111.96 233.903C111.818 233.724 111.709 233.565 111.632 233.426H111.525V234.444H110.281ZM111.53 231.172C111.53 231.632 111.596 232.035 111.73 232.382C111.863 232.728 112.057 233 112.309 233.196C112.562 233.389 112.872 233.486 113.238 233.486C113.619 233.486 113.937 233.385 114.193 233.183C114.449 232.978 114.642 232.701 114.773 232.352C114.906 232.003 114.973 231.609 114.973 231.172C114.973 230.74 114.907 230.352 114.777 230.008C114.649 229.665 114.456 229.393 114.197 229.194C113.942 228.995 113.622 228.896 113.238 228.896C112.869 228.896 112.557 228.991 112.301 229.182C112.048 229.372 111.856 229.638 111.726 229.978C111.595 230.319 111.53 230.717 111.53 231.172ZM120.512 234.576C119.867 234.576 119.311 234.439 118.845 234.163C118.382 233.885 118.024 233.494 117.771 232.991C117.521 232.486 117.396 231.893 117.396 231.214C117.396 230.544 117.521 229.953 117.771 229.441C118.024 228.93 118.377 228.531 118.828 228.244C119.283 227.957 119.814 227.814 120.422 227.814C120.791 227.814 121.149 227.875 121.496 227.997C121.843 228.119 122.154 228.311 122.429 228.572C122.705 228.834 122.922 229.173 123.081 229.591C123.24 230.005 123.32 230.51 123.32 231.103V231.555H118.117V230.601H122.071C122.071 230.265 122.003 229.968 121.867 229.71C121.73 229.449 121.539 229.243 121.291 229.092C121.047 228.941 120.76 228.866 120.431 228.866C120.073 228.866 119.76 228.954 119.493 229.13C119.229 229.304 119.024 229.531 118.879 229.812C118.737 230.091 118.666 230.393 118.666 230.72V231.466C118.666 231.903 118.743 232.275 118.896 232.582C119.053 232.889 119.27 233.123 119.548 233.285C119.827 233.444 120.152 233.524 120.524 233.524C120.766 233.524 120.986 233.49 121.185 233.422C121.384 233.351 121.556 233.245 121.7 233.106C121.845 232.967 121.956 232.795 122.033 232.591L123.239 232.808C123.142 233.163 122.969 233.474 122.719 233.741C122.472 234.005 122.161 234.211 121.786 234.359C121.414 234.504 120.989 234.576 120.512 234.576ZM127.491 234.576C126.857 234.576 126.312 234.433 125.854 234.146C125.4 233.856 125.05 233.457 124.806 232.949C124.562 232.44 124.439 231.858 124.439 231.201C124.439 230.537 124.564 229.95 124.814 229.441C125.064 228.93 125.417 228.531 125.871 228.244C126.326 227.957 126.861 227.814 127.478 227.814C127.975 227.814 128.418 227.906 128.807 228.091C129.197 228.272 129.51 228.528 129.749 228.858C129.991 229.187 130.134 229.572 130.18 230.013H128.939C128.871 229.706 128.715 229.441 128.471 229.22C128.229 228.998 127.905 228.888 127.499 228.888C127.144 228.888 126.833 228.981 126.566 229.169C126.302 229.353 126.096 229.618 125.948 229.961C125.8 230.302 125.726 230.706 125.726 231.172C125.726 231.649 125.799 232.061 125.944 232.407C126.089 232.754 126.293 233.022 126.557 233.213C126.824 233.403 127.138 233.498 127.499 233.498C127.741 233.498 127.959 233.454 128.155 233.366C128.354 233.275 128.52 233.146 128.654 232.978C128.79 232.811 128.885 232.609 128.939 232.373H130.18C130.134 232.797 129.996 233.174 129.766 233.507C129.536 233.839 129.228 234.101 128.841 234.291C128.458 234.481 128.008 234.576 127.491 234.576ZM133.447 234.589C133.032 234.589 132.657 234.513 132.322 234.359C131.987 234.203 131.721 233.977 131.525 233.682C131.332 233.386 131.235 233.024 131.235 232.595C131.235 232.226 131.306 231.922 131.448 231.683C131.59 231.444 131.782 231.255 132.024 231.116C132.265 230.977 132.535 230.872 132.833 230.801C133.132 230.73 133.436 230.676 133.745 230.639C134.137 230.593 134.455 230.557 134.7 230.528C134.944 230.497 135.122 230.447 135.232 230.379C135.343 230.311 135.399 230.2 135.399 230.047V230.017C135.399 229.645 135.294 229.356 135.083 229.152C134.876 228.947 134.566 228.845 134.154 228.845C133.725 228.845 133.387 228.94 133.14 229.13C132.896 229.318 132.727 229.527 132.633 229.757L131.436 229.484C131.578 229.086 131.785 228.765 132.058 228.521C132.333 228.274 132.65 228.095 133.008 227.984C133.366 227.87 133.742 227.814 134.137 227.814C134.399 227.814 134.676 227.845 134.968 227.907C135.264 227.967 135.539 228.078 135.795 228.24C136.053 228.402 136.265 228.633 136.43 228.934C136.595 229.233 136.677 229.62 136.677 230.098V234.444H135.433V233.549H135.382C135.299 233.714 135.176 233.876 135.011 234.035C134.846 234.194 134.634 234.326 134.376 234.432C134.117 234.537 133.808 234.589 133.447 234.589ZM133.724 233.566C134.076 233.566 134.377 233.497 134.627 233.358C134.88 233.218 135.072 233.037 135.203 232.812C135.336 232.585 135.403 232.342 135.403 232.084V231.24C135.357 231.285 135.269 231.328 135.139 231.368C135.011 231.405 134.865 231.437 134.7 231.466C134.535 231.491 134.374 231.515 134.218 231.538C134.062 231.558 133.931 231.575 133.826 231.589C133.579 231.62 133.353 231.673 133.149 231.747C132.947 231.821 132.785 231.927 132.663 232.066C132.544 232.203 132.484 232.385 132.484 232.612C132.484 232.927 132.6 233.166 132.833 233.328C133.066 233.487 133.363 233.566 133.724 233.566ZM142.52 231.73V227.899H143.799V234.444H142.546V233.311H142.478C142.327 233.66 142.086 233.951 141.753 234.184C141.424 234.415 141.013 234.53 140.522 234.53C140.101 234.53 139.729 234.437 139.405 234.253C139.084 234.065 138.831 233.788 138.647 233.422C138.465 233.055 138.374 232.602 138.374 232.062V227.899H139.648V231.909C139.648 232.355 139.772 232.71 140.019 232.974C140.266 233.238 140.587 233.37 140.982 233.37C141.221 233.37 141.458 233.311 141.694 233.191C141.932 233.072 142.13 232.892 142.286 232.65C142.445 232.409 142.523 232.102 142.52 231.73ZM150.416 229.497L149.261 229.701C149.213 229.554 149.136 229.413 149.031 229.28C148.928 229.146 148.789 229.037 148.613 228.951C148.437 228.866 148.217 228.824 147.953 228.824C147.592 228.824 147.291 228.905 147.049 229.066C146.808 229.226 146.687 229.432 146.687 229.684C146.687 229.903 146.768 230.079 146.93 230.213C147.092 230.346 147.353 230.456 147.714 230.541L148.754 230.78C149.356 230.919 149.805 231.133 150.1 231.423C150.396 231.713 150.544 232.089 150.544 232.552C150.544 232.944 150.43 233.294 150.203 233.601C149.978 233.905 149.664 234.143 149.261 234.316C148.86 234.49 148.396 234.576 147.867 234.576C147.134 234.576 146.536 234.42 146.073 234.108C145.61 233.792 145.326 233.345 145.221 232.765L146.453 232.578C146.529 232.899 146.687 233.142 146.926 233.307C147.164 233.468 147.475 233.549 147.859 233.549C148.276 233.549 148.61 233.463 148.86 233.29C149.11 233.113 149.235 232.899 149.235 232.646C149.235 232.441 149.159 232.27 149.005 232.13C148.855 231.991 148.623 231.886 148.311 231.815L147.203 231.572C146.592 231.433 146.14 231.211 145.847 230.907C145.558 230.603 145.413 230.218 145.413 229.753C145.413 229.366 145.521 229.028 145.737 228.738C145.953 228.449 146.251 228.223 146.632 228.061C147.012 227.896 147.448 227.814 147.94 227.814C148.647 227.814 149.204 227.967 149.61 228.274C150.017 228.578 150.285 228.986 150.416 229.497ZM154.765 234.576C154.121 234.576 153.565 234.439 153.099 234.163C152.636 233.885 152.278 233.494 152.025 232.991C151.775 232.486 151.65 231.893 151.65 231.214C151.65 230.544 151.775 229.953 152.025 229.441C152.278 228.93 152.631 228.531 153.082 228.244C153.537 227.957 154.068 227.814 154.676 227.814C155.045 227.814 155.403 227.875 155.75 227.997C156.096 228.119 156.407 228.311 156.683 228.572C156.959 228.834 157.176 229.173 157.335 229.591C157.494 230.005 157.574 230.51 157.574 231.103V231.555H152.371V230.601H156.325C156.325 230.265 156.257 229.968 156.121 229.71C155.984 229.449 155.792 229.243 155.545 229.092C155.301 228.941 155.014 228.866 154.684 228.866C154.327 228.866 154.014 228.954 153.747 229.13C153.483 229.304 153.278 229.531 153.133 229.812C152.991 230.091 152.92 230.393 152.92 230.72V231.466C152.92 231.903 152.997 232.275 153.15 232.582C153.307 232.889 153.524 233.123 153.802 233.285C154.081 233.444 154.406 233.524 154.778 233.524C155.02 233.524 155.24 233.49 155.439 233.422C155.638 233.351 155.809 233.245 155.954 233.106C156.099 232.967 156.21 232.795 156.287 232.591L157.493 232.808C157.396 233.163 157.223 233.474 156.973 233.741C156.726 234.005 156.415 234.211 156.04 234.359C155.667 234.504 155.243 234.576 154.765 234.576ZM163.582 234.444L161.656 227.899H162.973L164.256 232.706H164.319L165.606 227.899H166.923L168.202 232.684H168.265L169.54 227.899H170.856L168.934 234.444H167.635L166.305 229.718H166.207L164.878 234.444H163.582ZM174.687 234.576C174.042 234.576 173.487 234.439 173.021 234.163C172.558 233.885 172.2 233.494 171.947 232.991C171.697 232.486 171.572 231.893 171.572 231.214C171.572 230.544 171.697 229.953 171.947 229.441C172.2 228.93 172.552 228.531 173.004 228.244C173.459 227.957 173.99 227.814 174.598 227.814C174.967 227.814 175.325 227.875 175.672 227.997C176.018 228.119 176.329 228.311 176.605 228.572C176.881 228.834 177.098 229.173 177.257 229.591C177.416 230.005 177.496 230.51 177.496 231.103V231.555H172.292V230.601H176.247C176.247 230.265 176.179 229.968 176.042 229.71C175.906 229.449 175.714 229.243 175.467 229.092C175.223 228.941 174.936 228.866 174.606 228.866C174.248 228.866 173.936 228.954 173.669 229.13C173.405 229.304 173.2 229.531 173.055 229.812C172.913 230.091 172.842 230.393 172.842 230.72V231.466C172.842 231.903 172.919 232.275 173.072 232.582C173.229 232.889 173.446 233.123 173.724 233.285C174.003 233.444 174.328 233.524 174.7 233.524C174.942 233.524 175.162 233.49 175.361 233.422C175.559 233.351 175.731 233.245 175.876 233.106C176.021 232.967 176.132 232.795 176.209 232.591L177.415 232.808C177.318 233.163 177.145 233.474 176.895 233.741C176.648 234.005 176.336 234.211 175.961 234.359C175.589 234.504 175.165 234.576 174.687 234.576ZM183.359 230.558V234.444H182.085V225.717H183.342V228.964H183.423C183.577 228.612 183.811 228.332 184.126 228.125C184.442 227.917 184.854 227.814 185.362 227.814C185.811 227.814 186.203 227.906 186.538 228.091C186.876 228.275 187.138 228.551 187.322 228.917C187.51 229.281 187.604 229.736 187.604 230.281V234.444H186.329V230.434C186.329 229.954 186.206 229.582 185.959 229.318C185.711 229.051 185.368 228.917 184.927 228.917C184.626 228.917 184.356 228.981 184.118 229.109C183.882 229.237 183.696 229.424 183.559 229.672C183.426 229.916 183.359 230.211 183.359 230.558ZM191.209 234.589C190.794 234.589 190.419 234.513 190.084 234.359C189.748 234.203 189.483 233.977 189.287 233.682C189.094 233.386 188.997 233.024 188.997 232.595C188.997 232.226 189.068 231.922 189.21 231.683C189.352 231.444 189.544 231.255 189.785 231.116C190.027 230.977 190.297 230.872 190.595 230.801C190.893 230.73 191.197 230.676 191.507 230.639C191.899 230.593 192.217 230.557 192.461 230.528C192.706 230.497 192.883 230.447 192.994 230.379C193.105 230.311 193.16 230.2 193.16 230.047V230.017C193.16 229.645 193.055 229.356 192.845 229.152C192.638 228.947 192.328 228.845 191.916 228.845C191.487 228.845 191.149 228.94 190.902 229.13C190.657 229.318 190.488 229.527 190.395 229.757L189.197 229.484C189.339 229.086 189.547 228.765 189.819 228.521C190.095 228.274 190.412 228.095 190.77 227.984C191.128 227.87 191.504 227.814 191.899 227.814C192.16 227.814 192.437 227.845 192.73 227.907C193.025 227.967 193.301 228.078 193.557 228.24C193.815 228.402 194.027 228.633 194.192 228.934C194.356 229.233 194.439 229.62 194.439 230.098V234.444H193.194V233.549H193.143C193.061 233.714 192.937 233.876 192.773 234.035C192.608 234.194 192.396 234.326 192.138 234.432C191.879 234.537 191.569 234.589 191.209 234.589ZM191.486 233.566C191.838 233.566 192.139 233.497 192.389 233.358C192.642 233.218 192.834 233.037 192.964 232.812C193.098 232.585 193.165 232.342 193.165 232.084V231.24C193.119 231.285 193.031 231.328 192.9 231.368C192.773 231.405 192.626 231.437 192.461 231.466C192.297 231.491 192.136 231.515 191.98 231.538C191.824 231.558 191.693 231.575 191.588 231.589C191.341 231.62 191.115 231.673 190.91 231.747C190.709 231.821 190.547 231.927 190.425 232.066C190.305 232.203 190.246 232.385 190.246 232.612C190.246 232.927 190.362 233.166 190.595 233.328C190.828 233.487 191.125 233.566 191.486 233.566ZM201.501 227.899L199.127 234.444H197.764L195.386 227.899H196.754L198.411 232.936H198.48L200.133 227.899H201.501ZM205.297 234.576C204.652 234.576 204.096 234.439 203.631 234.163C203.167 233.885 202.809 233.494 202.557 232.991C202.307 232.486 202.182 231.893 202.182 231.214C202.182 230.544 202.307 229.953 202.557 229.441C202.809 228.93 203.162 228.531 203.613 228.244C204.068 227.957 204.599 227.814 205.207 227.814C205.577 227.814 205.934 227.875 206.281 227.997C206.628 228.119 206.939 228.311 207.214 228.572C207.49 228.834 207.707 229.173 207.866 229.591C208.025 230.005 208.105 230.51 208.105 231.103V231.555H202.902V230.601H206.856C206.856 230.265 206.788 229.968 206.652 229.71C206.515 229.449 206.324 229.243 206.077 229.092C205.832 228.941 205.545 228.866 205.216 228.866C204.858 228.866 204.545 228.954 204.278 229.13C204.014 229.304 203.809 229.531 203.665 229.812C203.523 230.091 203.452 230.393 203.452 230.72V231.466C203.452 231.903 203.528 232.275 203.682 232.582C203.838 232.889 204.055 233.123 204.334 233.285C204.612 233.444 204.937 233.524 205.309 233.524C205.551 233.524 205.771 233.49 205.97 233.422C206.169 233.351 206.341 233.245 206.486 233.106C206.631 232.967 206.741 232.795 206.818 232.591L208.024 232.808C207.927 233.163 207.754 233.474 207.504 233.741C207.257 234.005 206.946 234.211 206.571 234.359C206.199 234.504 205.774 234.576 205.297 234.576ZM217.599 229.497L216.444 229.701C216.396 229.554 216.319 229.413 216.214 229.28C216.112 229.146 215.973 229.037 215.797 228.951C215.621 228.866 215.4 228.824 215.136 228.824C214.775 228.824 214.474 228.905 214.233 229.066C213.991 229.226 213.871 229.432 213.871 229.684C213.871 229.903 213.952 230.079 214.113 230.213C214.275 230.346 214.537 230.456 214.898 230.541L215.937 230.78C216.54 230.919 216.988 231.133 217.284 231.423C217.579 231.713 217.727 232.089 217.727 232.552C217.727 232.944 217.613 233.294 217.386 233.601C217.162 233.905 216.848 234.143 216.444 234.316C216.044 234.49 215.579 234.576 215.051 234.576C214.318 234.576 213.72 234.42 213.257 234.108C212.794 233.792 212.51 233.345 212.405 232.765L213.636 232.578C213.713 232.899 213.871 233.142 214.109 233.307C214.348 233.468 214.659 233.549 215.042 233.549C215.46 233.549 215.794 233.463 216.044 233.29C216.294 233.113 216.419 232.899 216.419 232.646C216.419 232.441 216.342 232.27 216.189 232.13C216.038 231.991 215.807 231.886 215.494 231.815L214.386 231.572C213.775 231.433 213.324 231.211 213.031 230.907C212.741 230.603 212.596 230.218 212.596 229.753C212.596 229.366 212.704 229.028 212.92 228.738C213.136 228.449 213.434 228.223 213.815 228.061C214.196 227.896 214.632 227.814 215.123 227.814C215.831 227.814 216.388 227.967 216.794 228.274C217.2 228.578 217.469 228.986 217.599 229.497ZM221.885 234.576C221.271 234.576 220.736 234.436 220.279 234.155C219.821 233.873 219.466 233.48 219.213 232.974C218.96 232.468 218.834 231.878 218.834 231.201C218.834 230.522 218.96 229.929 219.213 229.42C219.466 228.912 219.821 228.517 220.279 228.236C220.736 227.954 221.271 227.814 221.885 227.814C222.499 227.814 223.034 227.954 223.492 228.236C223.949 228.517 224.304 228.912 224.557 229.42C224.81 229.929 224.936 230.522 224.936 231.201C224.936 231.878 224.81 232.468 224.557 232.974C224.304 233.48 223.949 233.873 223.492 234.155C223.034 234.436 222.499 234.576 221.885 234.576ZM221.889 233.507C222.287 233.507 222.617 233.402 222.878 233.191C223.139 232.981 223.333 232.701 223.458 232.352C223.585 232.003 223.649 231.618 223.649 231.197C223.649 230.78 223.585 230.396 223.458 230.047C223.333 229.694 223.139 229.412 222.878 229.199C222.617 228.986 222.287 228.879 221.889 228.879C221.489 228.879 221.156 228.986 220.892 229.199C220.631 229.412 220.436 229.694 220.308 230.047C220.183 230.396 220.121 230.78 220.121 231.197C220.121 231.618 220.183 232.003 220.308 232.352C220.436 232.701 220.631 232.981 220.892 233.191C221.156 233.402 221.489 233.507 221.889 233.507ZM229.534 234.444V227.899H230.757V228.964H230.838C230.975 228.603 231.198 228.322 231.507 228.12C231.817 227.916 232.188 227.814 232.619 227.814C233.057 227.814 233.423 227.916 233.719 228.12C234.017 228.325 234.237 228.606 234.379 228.964H234.448C234.604 228.615 234.852 228.336 235.193 228.129C235.534 227.919 235.941 227.814 236.412 227.814C237.006 227.814 237.49 228 237.865 228.372C238.243 228.744 238.432 229.305 238.432 230.055V234.444H237.158V230.174C237.158 229.731 237.037 229.41 236.796 229.211C236.554 229.013 236.266 228.913 235.931 228.913C235.516 228.913 235.193 229.041 234.963 229.297C234.733 229.549 234.618 229.875 234.618 230.272V234.444H233.348V230.093C233.348 229.738 233.237 229.453 233.016 229.237C232.794 229.021 232.506 228.913 232.151 228.913C231.909 228.913 231.686 228.977 231.482 229.105C231.28 229.23 231.117 229.405 230.992 229.629C230.869 229.853 230.808 230.113 230.808 230.409V234.444H229.534ZM242.045 234.589C241.63 234.589 241.255 234.513 240.92 234.359C240.584 234.203 240.319 233.977 240.123 233.682C239.93 233.386 239.833 233.024 239.833 232.595C239.833 232.226 239.904 231.922 240.046 231.683C240.188 231.444 240.38 231.255 240.621 231.116C240.863 230.977 241.133 230.872 241.431 230.801C241.729 230.73 242.033 230.676 242.343 230.639C242.735 230.593 243.053 230.557 243.297 230.528C243.542 230.497 243.719 230.447 243.83 230.379C243.941 230.311 243.996 230.2 243.996 230.047V230.017C243.996 229.645 243.891 229.356 243.681 229.152C243.474 228.947 243.164 228.845 242.752 228.845C242.323 228.845 241.985 228.94 241.738 229.13C241.493 229.318 241.324 229.527 241.231 229.757L240.033 229.484C240.175 229.086 240.383 228.765 240.655 228.521C240.931 228.274 241.248 228.095 241.606 227.984C241.964 227.87 242.34 227.814 242.735 227.814C242.996 227.814 243.273 227.845 243.566 227.907C243.861 227.967 244.137 228.078 244.393 228.24C244.651 228.402 244.863 228.633 245.028 228.934C245.192 229.233 245.275 229.62 245.275 230.098V234.444H244.03V233.549H243.979C243.897 233.714 243.773 233.876 243.608 234.035C243.444 234.194 243.232 234.326 242.974 234.432C242.715 234.537 242.405 234.589 242.045 234.589ZM242.322 233.566C242.674 233.566 242.975 233.497 243.225 233.358C243.478 233.218 243.67 233.037 243.8 232.812C243.934 232.585 244.001 232.342 244.001 232.084V231.24C243.955 231.285 243.867 231.328 243.736 231.368C243.608 231.405 243.462 231.437 243.297 231.466C243.133 231.491 242.972 231.515 242.816 231.538C242.66 231.558 242.529 231.575 242.424 231.589C242.177 231.62 241.951 231.673 241.746 231.747C241.545 231.821 241.383 231.927 241.26 232.066C241.141 232.203 241.081 232.385 241.081 232.612C241.081 232.927 241.198 233.166 241.431 233.328C241.664 233.487 241.961 233.566 242.322 233.566ZM247.543 236.899C247.352 236.899 247.179 236.883 247.023 236.852C246.867 236.824 246.75 236.792 246.673 236.758L246.98 235.714C247.213 235.777 247.421 235.804 247.602 235.795C247.784 235.787 247.945 235.718 248.084 235.591C248.226 235.463 248.351 235.254 248.459 234.964L248.617 234.53L246.222 227.899H247.585L249.243 232.978H249.311L250.969 227.899H252.337L249.639 235.318C249.514 235.659 249.355 235.947 249.162 236.183C248.969 236.422 248.739 236.601 248.472 236.72C248.205 236.839 247.895 236.899 247.543 236.899ZM109.959 242.899V243.922H106.384V242.899H109.959ZM107.342 241.331H108.616V247.522C108.616 247.77 108.653 247.956 108.727 248.081C108.801 248.203 108.896 248.287 109.013 248.332C109.132 248.375 109.261 248.396 109.401 248.396C109.503 248.396 109.592 248.389 109.669 248.375C109.746 248.361 109.805 248.349 109.848 248.341L110.078 249.393C110.004 249.422 109.899 249.45 109.763 249.478C109.626 249.51 109.456 249.527 109.251 249.53C108.916 249.535 108.604 249.476 108.314 249.351C108.024 249.226 107.79 249.032 107.611 248.771C107.432 248.51 107.342 248.182 107.342 247.787V241.331ZM112.783 245.558V249.444H111.509V240.717H112.766V243.964H112.847C113 243.612 113.235 243.332 113.55 243.125C113.865 242.917 114.277 242.814 114.786 242.814C115.235 242.814 115.627 242.906 115.962 243.091C116.3 243.275 116.561 243.551 116.746 243.917C116.934 244.281 117.027 244.736 117.027 245.281V249.444H115.753V245.434C115.753 244.954 115.63 244.582 115.382 244.318C115.135 244.051 114.792 243.917 114.351 243.917C114.05 243.917 113.78 243.981 113.542 244.109C113.306 244.237 113.12 244.424 112.983 244.672C112.85 244.916 112.783 245.211 112.783 245.558ZM118.728 249.444V242.899H120.002V249.444H118.728ZM119.371 241.889C119.15 241.889 118.959 241.815 118.8 241.667C118.644 241.517 118.566 241.338 118.566 241.13C118.566 240.92 118.644 240.741 118.8 240.593C118.959 240.443 119.15 240.368 119.371 240.368C119.593 240.368 119.782 240.443 119.938 240.593C120.097 240.741 120.176 240.92 120.176 241.13C120.176 241.338 120.097 241.517 119.938 241.667C119.782 241.815 119.593 241.889 119.371 241.889ZM122.99 245.558V249.444H121.716V242.899H122.939V243.964H123.02C123.17 243.618 123.406 243.339 123.727 243.129C124.051 242.919 124.459 242.814 124.95 242.814C125.396 242.814 125.787 242.907 126.122 243.095C126.457 243.28 126.717 243.555 126.902 243.922C127.087 244.288 127.179 244.741 127.179 245.281V249.444H125.905V245.434C125.905 244.96 125.781 244.589 125.534 244.322C125.287 244.052 124.947 243.917 124.516 243.917C124.22 243.917 123.957 243.981 123.727 244.109C123.5 244.237 123.32 244.424 123.186 244.672C123.055 244.916 122.99 245.211 122.99 245.558ZM131.632 252.035C131.112 252.035 130.665 251.967 130.29 251.831C129.918 251.694 129.614 251.514 129.378 251.29C129.142 251.065 128.966 250.819 128.849 250.552L129.945 250.101C130.021 250.226 130.124 250.358 130.251 250.497C130.382 250.639 130.558 250.76 130.78 250.859C131.004 250.959 131.293 251.008 131.645 251.008C132.128 251.008 132.527 250.89 132.842 250.655C133.158 250.422 133.315 250.049 133.315 249.538V248.251H133.234C133.158 248.39 133.047 248.545 132.902 248.716C132.76 248.886 132.564 249.034 132.314 249.159C132.064 249.284 131.739 249.346 131.338 249.346C130.821 249.346 130.355 249.226 129.94 248.984C129.528 248.74 129.202 248.38 128.96 247.906C128.722 247.429 128.602 246.842 128.602 246.146C128.602 245.45 128.72 244.853 128.956 244.356C129.195 243.859 129.521 243.478 129.936 243.214C130.351 242.947 130.821 242.814 131.347 242.814C131.753 242.814 132.081 242.882 132.331 243.018C132.581 243.152 132.776 243.308 132.915 243.487C133.057 243.666 133.166 243.824 133.243 243.96H133.337V242.899H134.585V249.589C134.585 250.152 134.455 250.613 134.193 250.974C133.932 251.335 133.578 251.602 133.132 251.775C132.689 251.949 132.189 252.035 131.632 252.035ZM131.619 248.29C131.986 248.29 132.295 248.204 132.548 248.034C132.804 247.861 132.997 247.613 133.128 247.292C133.261 246.968 133.328 246.581 133.328 246.129C133.328 245.689 133.263 245.301 133.132 244.966C133.001 244.63 132.81 244.369 132.557 244.182C132.304 243.991 131.991 243.896 131.619 243.896C131.236 243.896 130.916 243.995 130.661 244.194C130.405 244.39 130.212 244.657 130.081 244.995C129.953 245.334 129.889 245.711 129.889 246.129C129.889 246.558 129.955 246.934 130.085 247.258C130.216 247.582 130.409 247.835 130.665 248.017C130.923 248.199 131.241 248.29 131.619 248.29ZM141.199 244.497L140.044 244.701C139.996 244.554 139.919 244.413 139.814 244.28C139.712 244.146 139.572 244.037 139.396 243.951C139.22 243.866 139 243.824 138.736 243.824C138.375 243.824 138.074 243.905 137.832 244.066C137.591 244.226 137.47 244.432 137.47 244.684C137.47 244.903 137.551 245.079 137.713 245.213C137.875 245.346 138.136 245.456 138.497 245.541L139.537 245.78C140.139 245.919 140.588 246.133 140.884 246.423C141.179 246.713 141.327 247.089 141.327 247.552C141.327 247.944 141.213 248.294 140.986 248.601C140.761 248.905 140.447 249.143 140.044 249.316C139.643 249.49 139.179 249.576 138.651 249.576C137.918 249.576 137.32 249.42 136.857 249.108C136.393 248.792 136.109 248.345 136.004 247.765L137.236 247.578C137.313 247.899 137.47 248.142 137.709 248.307C137.947 248.468 138.259 248.549 138.642 248.549C139.06 248.549 139.393 248.463 139.643 248.29C139.893 248.113 140.018 247.899 140.018 247.646C140.018 247.441 139.942 247.27 139.788 247.13C139.638 246.991 139.406 246.886 139.094 246.815L137.986 246.572C137.375 246.433 136.923 246.211 136.631 245.907C136.341 245.603 136.196 245.218 136.196 244.753C136.196 244.366 136.304 244.028 136.52 243.738C136.736 243.449 137.034 243.223 137.415 243.061C137.795 242.896 138.232 242.814 138.723 242.814C139.43 242.814 139.987 242.967 140.393 243.274C140.8 243.578 141.068 243.986 141.199 244.497ZM145.903 249.444V242.899H147.178V249.444H145.903ZM146.547 241.889C146.325 241.889 146.135 241.815 145.976 241.667C145.82 241.517 145.741 241.338 145.741 241.13C145.741 240.92 145.82 240.741 145.976 240.593C146.135 240.443 146.325 240.368 146.547 240.368C146.768 240.368 146.957 240.443 147.114 240.593C147.273 240.741 147.352 240.92 147.352 241.13C147.352 241.338 147.273 241.517 147.114 241.667C146.957 241.815 146.768 241.889 146.547 241.889ZM150.166 245.558V249.444H148.892V242.899H150.115V243.964H150.196C150.346 243.618 150.582 243.339 150.903 243.129C151.227 242.919 151.635 242.814 152.126 242.814C152.572 242.814 152.963 242.907 153.298 243.095C153.633 243.28 153.893 243.555 154.078 243.922C154.262 244.288 154.355 244.741 154.355 245.281V249.444H153.081V245.434C153.081 244.96 152.957 244.589 152.71 244.322C152.463 244.052 152.123 243.917 151.691 243.917C151.396 243.917 151.133 243.981 150.903 244.109C150.676 244.237 150.495 244.424 150.362 244.672C150.231 244.916 150.166 245.211 150.166 245.558ZM161.996 249.576C161.363 249.576 160.817 249.433 160.36 249.146C159.906 248.856 159.556 248.457 159.312 247.949C159.067 247.44 158.945 246.858 158.945 246.201C158.945 245.537 159.07 244.95 159.32 244.441C159.57 243.93 159.923 243.531 160.377 243.244C160.832 242.957 161.367 242.814 161.984 242.814C162.481 242.814 162.924 242.906 163.313 243.091C163.702 243.272 164.016 243.528 164.255 243.858C164.496 244.187 164.64 244.572 164.685 245.013H163.445C163.377 244.706 163.221 244.441 162.977 244.22C162.735 243.998 162.411 243.888 162.005 243.888C161.65 243.888 161.339 243.981 161.072 244.169C160.808 244.353 160.602 244.618 160.454 244.961C160.306 245.302 160.232 245.706 160.232 246.172C160.232 246.649 160.305 247.061 160.45 247.407C160.594 247.754 160.799 248.022 161.063 248.213C161.33 248.403 161.644 248.498 162.005 248.498C162.246 248.498 162.465 248.454 162.661 248.366C162.86 248.275 163.026 248.146 163.16 247.978C163.296 247.811 163.391 247.609 163.445 247.373H164.685C164.64 247.797 164.502 248.174 164.272 248.507C164.042 248.839 163.734 249.101 163.347 249.291C162.964 249.481 162.513 249.576 161.996 249.576ZM168.805 249.576C168.191 249.576 167.656 249.436 167.199 249.155C166.741 248.873 166.386 248.48 166.133 247.974C165.88 247.468 165.754 246.878 165.754 246.201C165.754 245.522 165.88 244.929 166.133 244.42C166.386 243.912 166.741 243.517 167.199 243.236C167.656 242.954 168.191 242.814 168.805 242.814C169.419 242.814 169.954 242.954 170.412 243.236C170.869 243.517 171.224 243.912 171.477 244.42C171.73 244.929 171.856 245.522 171.856 246.201C171.856 246.878 171.73 247.468 171.477 247.974C171.224 248.48 170.869 248.873 170.412 249.155C169.954 249.436 169.419 249.576 168.805 249.576ZM168.809 248.507C169.207 248.507 169.537 248.402 169.798 248.191C170.059 247.981 170.252 247.701 170.377 247.352C170.505 247.003 170.569 246.618 170.569 246.197C170.569 245.78 170.505 245.396 170.377 245.047C170.252 244.694 170.059 244.412 169.798 244.199C169.537 243.986 169.207 243.879 168.809 243.879C168.409 243.879 168.076 243.986 167.812 244.199C167.551 244.412 167.356 244.694 167.228 245.047C167.103 245.396 167.041 245.78 167.041 246.197C167.041 246.618 167.103 247.003 167.228 247.352C167.356 247.701 167.551 247.981 167.812 248.191C168.076 248.402 168.409 248.507 168.809 248.507ZM173.278 249.444V242.899H174.501V243.964H174.582C174.719 243.603 174.942 243.322 175.251 243.12C175.561 242.916 175.932 242.814 176.364 242.814C176.801 242.814 177.168 242.916 177.463 243.12C177.761 243.325 177.982 243.606 178.124 243.964H178.192C178.348 243.615 178.597 243.336 178.938 243.129C179.278 242.919 179.685 242.814 180.156 242.814C180.75 242.814 181.234 243 181.609 243.372C181.987 243.744 182.176 244.305 182.176 245.055V249.444H180.902V245.174C180.902 244.731 180.781 244.41 180.54 244.211C180.298 244.013 180.01 243.913 179.675 243.913C179.26 243.913 178.938 244.041 178.707 244.297C178.477 244.549 178.362 244.875 178.362 245.272V249.444H177.092V245.093C177.092 244.738 176.982 244.453 176.76 244.237C176.538 244.021 176.25 243.913 175.895 243.913C175.653 243.913 175.43 243.977 175.226 244.105C175.024 244.23 174.861 244.405 174.736 244.629C174.614 244.853 174.553 245.113 174.553 245.409V249.444H173.278ZM183.884 249.444V242.899H185.107V243.964H185.188C185.324 243.603 185.547 243.322 185.857 243.12C186.167 242.916 186.537 242.814 186.969 242.814C187.407 242.814 187.773 242.916 188.069 243.12C188.367 243.325 188.587 243.606 188.729 243.964H188.797C188.953 243.615 189.202 243.336 189.543 243.129C189.884 242.919 190.29 242.814 190.762 242.814C191.355 242.814 191.84 243 192.215 243.372C192.593 243.744 192.782 244.305 192.782 245.055V249.444H191.507V245.174C191.507 244.731 191.387 244.41 191.145 244.211C190.904 244.013 190.615 243.913 190.28 243.913C189.865 243.913 189.543 244.041 189.313 244.297C189.083 244.549 188.968 244.875 188.968 245.272V249.444H187.698V245.093C187.698 244.738 187.587 244.453 187.365 244.237C187.144 244.021 186.855 243.913 186.5 243.913C186.259 243.913 186.036 243.977 185.831 244.105C185.63 244.23 185.466 244.405 185.341 244.629C185.219 244.853 185.158 245.113 185.158 245.409V249.444H183.884ZM197.246 249.576C196.633 249.576 196.097 249.436 195.64 249.155C195.183 248.873 194.827 248.48 194.575 247.974C194.322 247.468 194.195 246.878 194.195 246.201C194.195 245.522 194.322 244.929 194.575 244.42C194.827 243.912 195.183 243.517 195.64 243.236C196.097 242.954 196.633 242.814 197.246 242.814C197.86 242.814 198.396 242.954 198.853 243.236C199.31 243.517 199.665 243.912 199.918 244.42C200.171 244.929 200.298 245.522 200.298 246.201C200.298 246.878 200.171 247.468 199.918 247.974C199.665 248.48 199.31 248.873 198.853 249.155C198.396 249.436 197.86 249.576 197.246 249.576ZM197.251 248.507C197.648 248.507 197.978 248.402 198.239 248.191C198.501 247.981 198.694 247.701 198.819 247.352C198.947 247.003 199.011 246.618 199.011 246.197C199.011 245.78 198.947 245.396 198.819 245.047C198.694 244.694 198.501 244.412 198.239 244.199C197.978 243.986 197.648 243.879 197.251 243.879C196.85 243.879 196.518 243.986 196.254 244.199C195.992 244.412 195.798 244.694 195.67 245.047C195.545 245.396 195.482 245.78 195.482 246.197C195.482 246.618 195.545 247.003 195.67 247.352C195.798 247.701 195.992 247.981 196.254 248.191C196.518 248.402 196.85 248.507 197.251 248.507ZM202.994 245.558V249.444H201.72V242.899H202.943V243.964H203.024C203.174 243.618 203.41 243.339 203.731 243.129C204.055 242.919 204.463 242.814 204.954 242.814C205.4 242.814 205.791 242.907 206.126 243.095C206.461 243.28 206.721 243.555 206.906 243.922C207.091 244.288 207.183 244.741 207.183 245.281V249.444H205.909V245.434C205.909 244.96 205.785 244.589 205.538 244.322C205.291 244.052 204.951 243.917 204.52 243.917C204.224 243.917 203.961 243.981 203.731 244.109C203.504 244.237 203.324 244.424 203.19 244.672C203.059 244.916 202.994 245.211 202.994 245.558ZM213.972 249.589C213.558 249.589 213.183 249.513 212.847 249.359C212.512 249.203 212.246 248.977 212.05 248.682C211.857 248.386 211.761 248.024 211.761 247.595C211.761 247.226 211.832 246.922 211.974 246.683C212.116 246.444 212.308 246.255 212.549 246.116C212.79 245.977 213.06 245.872 213.359 245.801C213.657 245.73 213.961 245.676 214.271 245.639C214.663 245.593 214.981 245.557 215.225 245.528C215.469 245.497 215.647 245.447 215.758 245.379C215.869 245.311 215.924 245.2 215.924 245.047V245.017C215.924 244.645 215.819 244.356 215.609 244.152C215.401 243.947 215.092 243.845 214.68 243.845C214.251 243.845 213.913 243.94 213.665 244.13C213.421 244.318 213.252 244.527 213.158 244.757L211.961 244.484C212.103 244.086 212.31 243.765 212.583 243.521C212.859 243.274 213.175 243.095 213.533 242.984C213.891 242.87 214.268 242.814 214.663 242.814C214.924 242.814 215.201 242.845 215.494 242.907C215.789 242.967 216.065 243.078 216.32 243.24C216.579 243.402 216.79 243.633 216.955 243.934C217.12 244.233 217.202 244.62 217.202 245.098V249.444H215.958V248.549H215.907C215.825 248.714 215.701 248.876 215.536 249.035C215.371 249.194 215.16 249.326 214.901 249.432C214.643 249.537 214.333 249.589 213.972 249.589ZM214.249 248.566C214.602 248.566 214.903 248.497 215.153 248.358C215.406 248.218 215.597 248.037 215.728 247.812C215.862 247.585 215.928 247.342 215.928 247.084V246.24C215.883 246.285 215.795 246.328 215.664 246.368C215.536 246.405 215.39 246.437 215.225 246.466C215.06 246.491 214.9 246.515 214.744 246.538C214.587 246.558 214.457 246.575 214.352 246.589C214.104 246.62 213.879 246.673 213.674 246.747C213.472 246.821 213.31 246.927 213.188 247.066C213.069 247.203 213.009 247.385 213.009 247.612C213.009 247.927 213.126 248.166 213.359 248.328C213.592 248.487 213.888 248.566 214.249 248.566ZM220.174 245.558V249.444H218.9V242.899H220.123V243.964H220.203C220.354 243.618 220.59 243.339 220.911 243.129C221.235 242.919 221.642 242.814 222.134 242.814C222.58 242.814 222.971 242.907 223.306 243.095C223.641 243.28 223.901 243.555 224.086 243.922C224.27 244.288 224.363 244.741 224.363 245.281V249.444H223.088V245.434C223.088 244.96 222.965 244.589 222.718 244.322C222.471 244.052 222.131 243.917 221.699 243.917C221.404 243.917 221.141 243.981 220.911 244.109C220.684 244.237 220.503 244.424 220.37 244.672C220.239 244.916 220.174 245.211 220.174 245.558ZM228.522 249.572C227.993 249.572 227.522 249.437 227.107 249.167C226.695 248.895 226.371 248.507 226.135 248.004C225.902 247.498 225.786 246.892 225.786 246.184C225.786 245.477 225.904 244.872 226.14 244.369C226.378 243.866 226.705 243.481 227.12 243.214C227.534 242.947 228.005 242.814 228.53 242.814C228.936 242.814 229.263 242.882 229.51 243.018C229.76 243.152 229.953 243.308 230.09 243.487C230.229 243.666 230.337 243.824 230.414 243.96H230.49V240.717H231.765V249.444H230.52V248.426H230.414C230.337 248.565 230.226 248.724 230.081 248.903C229.939 249.082 229.743 249.238 229.493 249.372C229.243 249.505 228.919 249.572 228.522 249.572ZM228.803 248.486C229.169 248.486 229.479 248.389 229.732 248.196C229.988 248 230.181 247.728 230.311 247.382C230.445 247.035 230.512 246.632 230.512 246.172C230.512 245.717 230.446 245.319 230.316 244.978C230.185 244.638 229.993 244.372 229.74 244.182C229.488 243.991 229.175 243.896 228.803 243.896C228.419 243.896 228.1 243.995 227.844 244.194C227.588 244.393 227.395 244.665 227.265 245.008C227.137 245.352 227.073 245.74 227.073 246.172C227.073 246.609 227.138 247.003 227.269 247.352C227.4 247.701 227.593 247.978 227.848 248.183C228.107 248.385 228.425 248.486 228.803 248.486ZM236.759 249.444V242.899H238.033V249.444H236.759ZM237.402 241.889C237.181 241.889 236.99 241.815 236.831 241.667C236.675 241.517 236.597 241.338 236.597 241.13C236.597 240.92 236.675 240.741 236.831 240.593C236.99 240.443 237.181 240.368 237.402 240.368C237.624 240.368 237.813 240.443 237.969 240.593C238.128 240.741 238.208 240.92 238.208 241.13C238.208 241.338 238.128 241.517 237.969 241.667C237.813 241.815 237.624 241.889 237.402 241.889ZM242.803 242.899V243.922H239.227V242.899H242.803ZM240.186 241.331H241.46V247.522C241.46 247.77 241.497 247.956 241.571 248.081C241.645 248.203 241.74 248.287 241.857 248.332C241.976 248.375 242.105 248.396 242.244 248.396C242.347 248.396 242.436 248.389 242.513 248.375C242.589 248.361 242.649 248.349 242.692 248.341L242.922 249.393C242.848 249.422 242.743 249.45 242.607 249.478C242.47 249.51 242.3 249.527 242.095 249.53C241.76 249.535 241.447 249.476 241.158 249.351C240.868 249.226 240.634 249.032 240.455 248.771C240.276 248.51 240.186 248.182 240.186 247.787V241.331ZM247.388 249.444V242.899H248.662V249.444H247.388ZM248.031 241.889C247.81 241.889 247.619 241.815 247.46 241.667C247.304 241.517 247.226 241.338 247.226 241.13C247.226 240.92 247.304 240.741 247.46 240.593C247.619 240.443 247.81 240.368 248.031 240.368C248.253 240.368 248.442 240.443 248.598 240.593C248.757 240.741 248.837 240.92 248.837 241.13C248.837 241.338 248.757 241.517 248.598 241.667C248.442 241.815 248.253 241.889 248.031 241.889ZM255.281 244.497L254.126 244.701C254.078 244.554 254.001 244.413 253.896 244.28C253.794 244.146 253.654 244.037 253.478 243.951C253.302 243.866 253.082 243.824 252.818 243.824C252.457 243.824 252.156 243.905 251.914 244.066C251.673 244.226 251.552 244.432 251.552 244.684C251.552 244.903 251.633 245.079 251.795 245.213C251.957 245.346 252.218 245.456 252.579 245.541L253.619 245.78C254.221 245.919 254.67 246.133 254.966 246.423C255.261 246.713 255.409 247.089 255.409 247.552C255.409 247.944 255.295 248.294 255.068 248.601C254.843 248.905 254.529 249.143 254.126 249.316C253.725 249.49 253.261 249.576 252.733 249.576C252 249.576 251.402 249.42 250.939 249.108C250.475 248.792 250.191 248.345 250.086 247.765L251.318 247.578C251.395 247.899 251.552 248.142 251.791 248.307C252.029 248.468 252.341 248.549 252.724 248.549C253.142 248.549 253.475 248.463 253.725 248.29C253.975 248.113 254.1 247.899 254.1 247.646C254.1 247.441 254.024 247.27 253.87 247.13C253.72 246.991 253.488 246.886 253.176 246.815L252.068 246.572C251.457 246.433 251.005 246.211 250.713 245.907C250.423 245.603 250.278 245.218 250.278 244.753C250.278 244.366 250.386 244.028 250.602 243.738C250.818 243.449 251.116 243.223 251.497 243.061C251.877 242.896 252.314 242.814 252.805 242.814C253.512 242.814 254.069 242.967 254.475 243.274C254.882 243.578 255.15 243.986 255.281 244.497ZM150.979 264.444L149.053 257.899H150.369L151.652 262.706H151.716L153.003 257.899H154.32L155.598 262.684H155.662L156.936 257.899H158.253L156.331 264.444H155.031L153.702 259.718H153.604L152.274 264.444H150.979ZM162.02 264.576C161.406 264.576 160.871 264.436 160.413 264.155C159.956 263.873 159.601 263.48 159.348 262.974C159.095 262.468 158.969 261.878 158.969 261.201C158.969 260.522 159.095 259.929 159.348 259.42C159.601 258.912 159.956 258.517 160.413 258.236C160.871 257.954 161.406 257.814 162.02 257.814C162.634 257.814 163.169 257.954 163.626 258.236C164.084 258.517 164.439 258.912 164.692 259.42C164.945 259.929 165.071 260.522 165.071 261.201C165.071 261.878 164.945 262.468 164.692 262.974C164.439 263.48 164.084 263.873 163.626 264.155C163.169 264.436 162.634 264.576 162.02 264.576ZM162.024 263.507C162.422 263.507 162.751 263.402 163.013 263.191C163.274 262.981 163.467 262.701 163.592 262.352C163.72 262.003 163.784 261.618 163.784 261.197C163.784 260.78 163.72 260.396 163.592 260.047C163.467 259.694 163.274 259.412 163.013 259.199C162.751 258.986 162.422 258.879 162.024 258.879C161.624 258.879 161.291 258.986 161.027 259.199C160.766 259.412 160.571 259.694 160.443 260.047C160.318 260.396 160.256 260.78 160.256 261.197C160.256 261.618 160.318 262.003 160.443 262.352C160.571 262.701 160.766 262.981 161.027 263.191C161.291 263.402 161.624 263.507 162.024 263.507ZM167.767 260.558V264.444H166.493V257.899H167.716V258.964H167.797C167.948 258.618 168.184 258.339 168.505 258.129C168.828 257.919 169.236 257.814 169.728 257.814C170.174 257.814 170.564 257.907 170.9 258.095C171.235 258.28 171.495 258.555 171.679 258.922C171.864 259.288 171.956 259.741 171.956 260.281V264.444H170.682V260.434C170.682 259.96 170.559 259.589 170.311 259.322C170.064 259.052 169.725 258.917 169.293 258.917C168.998 258.917 168.735 258.981 168.505 259.109C168.277 259.237 168.097 259.424 167.963 259.672C167.833 259.916 167.767 260.211 167.767 260.558ZM176.115 264.572C175.587 264.572 175.115 264.437 174.701 264.167C174.289 263.895 173.965 263.507 173.729 263.004C173.496 262.498 173.38 261.892 173.38 261.184C173.38 260.477 173.498 259.872 173.733 259.369C173.972 258.866 174.299 258.481 174.713 258.214C175.128 257.947 175.598 257.814 176.124 257.814C176.53 257.814 176.857 257.882 177.104 258.018C177.354 258.152 177.547 258.308 177.684 258.487C177.823 258.666 177.931 258.824 178.007 258.96H178.084V255.717H179.358V264.444H178.114V263.426H178.007C177.931 263.565 177.82 263.724 177.675 263.903C177.533 264.082 177.337 264.238 177.087 264.372C176.837 264.505 176.513 264.572 176.115 264.572ZM176.397 263.486C176.763 263.486 177.073 263.389 177.326 263.196C177.581 263 177.775 262.728 177.905 262.382C178.039 262.035 178.105 261.632 178.105 261.172C178.105 260.717 178.04 260.319 177.909 259.978C177.779 259.638 177.587 259.372 177.334 259.182C177.081 258.991 176.769 258.896 176.397 258.896C176.013 258.896 175.694 258.995 175.438 259.194C175.182 259.393 174.989 259.665 174.858 260.008C174.73 260.352 174.667 260.74 174.667 261.172C174.667 261.609 174.732 262.003 174.863 262.352C174.993 262.701 175.186 262.978 175.442 263.183C175.701 263.385 176.019 263.486 176.397 263.486ZM183.998 264.576C183.353 264.576 182.798 264.439 182.332 264.163C181.869 263.885 181.511 263.494 181.258 262.991C181.008 262.486 180.883 261.893 180.883 261.214C180.883 260.544 181.008 259.953 181.258 259.441C181.511 258.93 181.863 258.531 182.315 258.244C182.769 257.957 183.3 257.814 183.908 257.814C184.278 257.814 184.636 257.875 184.982 257.997C185.329 258.119 185.64 258.311 185.915 258.572C186.191 258.834 186.408 259.173 186.567 259.591C186.727 260.005 186.806 260.51 186.806 261.103V261.555H181.603V260.601H185.558C185.558 260.265 185.489 259.968 185.353 259.71C185.217 259.449 185.025 259.243 184.778 259.092C184.533 258.941 184.246 258.866 183.917 258.866C183.559 258.866 183.246 258.954 182.979 259.13C182.715 259.304 182.511 259.531 182.366 259.812C182.224 260.091 182.153 260.393 182.153 260.72V261.466C182.153 261.903 182.229 262.275 182.383 262.582C182.539 262.889 182.756 263.123 183.035 263.285C183.313 263.444 183.638 263.524 184.011 263.524C184.252 263.524 184.472 263.49 184.671 263.422C184.87 263.351 185.042 263.245 185.187 263.106C185.332 262.967 185.442 262.795 185.519 262.591L186.725 262.808C186.629 263.163 186.455 263.474 186.205 263.741C185.958 264.005 185.647 264.211 185.272 264.359C184.9 264.504 184.475 264.576 183.998 264.576ZM188.22 264.444V257.899H189.451V258.939H189.52C189.639 258.586 189.849 258.309 190.15 258.108C190.454 257.903 190.798 257.801 191.181 257.801C191.261 257.801 191.355 257.804 191.463 257.809C191.574 257.815 191.66 257.822 191.723 257.831V259.049C191.672 259.035 191.581 259.02 191.45 259.003C191.319 258.983 191.189 258.973 191.058 258.973C190.757 258.973 190.488 259.037 190.252 259.165C190.02 259.29 189.835 259.464 189.699 259.689C189.562 259.91 189.494 260.163 189.494 260.447V264.444H188.22ZM196.327 257.899V258.922H192.628V257.899H196.327ZM193.642 264.444V257.14C193.642 256.731 193.732 256.392 193.911 256.122C194.09 255.849 194.327 255.646 194.623 255.513C194.918 255.376 195.239 255.308 195.586 255.308C195.841 255.308 196.06 255.329 196.242 255.372C196.424 255.412 196.559 255.449 196.647 255.483L196.348 256.514C196.289 256.497 196.212 256.477 196.118 256.454C196.025 256.429 195.911 256.416 195.777 256.416C195.468 256.416 195.246 256.493 195.113 256.646C194.982 256.799 194.917 257.021 194.917 257.311V264.444H193.642ZM201.788 261.73V257.899H203.066V264.444H201.814V263.311H201.745C201.595 263.66 201.353 263.951 201.021 264.184C200.691 264.415 200.281 264.53 199.789 264.53C199.369 264.53 198.997 264.437 198.673 264.253C198.352 264.065 198.099 263.788 197.914 263.422C197.733 263.055 197.642 262.602 197.642 262.062V257.899H198.916V261.909C198.916 262.355 199.039 262.71 199.287 262.974C199.534 263.238 199.855 263.37 200.25 263.37C200.488 263.37 200.725 263.311 200.961 263.191C201.2 263.072 201.397 262.892 201.554 262.65C201.713 262.409 201.791 262.102 201.788 261.73ZM206.053 255.717V264.444H204.778V255.717H206.053ZM209.041 255.717V264.444H207.767V255.717H209.041ZM211.594 264.525C211.362 264.525 211.161 264.443 210.994 264.278C210.826 264.111 210.742 263.909 210.742 263.673C210.742 263.44 210.826 263.241 210.994 263.076C211.161 262.909 211.362 262.825 211.594 262.825C211.827 262.825 212.028 262.909 212.195 263.076C212.363 263.241 212.447 263.44 212.447 263.673C212.447 263.829 212.407 263.973 212.327 264.103C212.251 264.231 212.148 264.334 212.021 264.41C211.893 264.487 211.751 264.525 211.594 264.525Z" fill="#707070"/>
<path d="M149.328 121V102.091H162.07V105.387H153.326V109.893H161.414V113.189H153.326V117.704H162.106V121H149.328ZM178.396 106.818L173.438 121H169.006L164.048 106.818H168.203L171.148 116.965H171.296L174.232 106.818H178.396ZM186.415 121.277C184.956 121.277 183.7 120.982 182.647 120.391C181.601 119.794 180.795 118.95 180.228 117.861C179.662 116.765 179.379 115.469 179.379 113.974C179.379 112.515 179.662 111.235 180.228 110.133C180.795 109.031 181.592 108.172 182.62 107.557C183.654 106.941 184.866 106.634 186.258 106.634C187.193 106.634 188.064 106.784 188.87 107.086C189.683 107.381 190.391 107.828 190.994 108.425C191.603 109.022 192.077 109.773 192.416 110.678C192.754 111.576 192.924 112.629 192.924 113.835V114.915H180.949V112.478H189.221C189.221 111.912 189.098 111.41 188.852 110.973C188.606 110.536 188.264 110.194 187.827 109.948C187.396 109.696 186.895 109.57 186.322 109.57C185.725 109.57 185.196 109.708 184.734 109.985C184.279 110.256 183.922 110.622 183.663 111.084C183.405 111.539 183.272 112.047 183.266 112.607V114.925C183.266 115.626 183.395 116.233 183.654 116.744C183.919 117.254 184.291 117.648 184.771 117.925C185.251 118.202 185.821 118.341 186.479 118.341C186.916 118.341 187.316 118.279 187.679 118.156C188.043 118.033 188.353 117.848 188.612 117.602C188.87 117.356 189.067 117.054 189.203 116.697L192.841 116.938C192.656 117.812 192.277 118.575 191.705 119.227C191.139 119.874 190.406 120.378 189.508 120.741C188.615 121.098 187.584 121.277 186.415 121.277ZM195.491 121V106.818H199.304V109.293H199.451C199.71 108.412 200.144 107.748 200.753 107.298C201.363 106.843 202.064 106.615 202.858 106.615C203.055 106.615 203.268 106.627 203.495 106.652C203.723 106.677 203.923 106.71 204.096 106.754V110.244C203.911 110.188 203.656 110.139 203.329 110.096C203.003 110.053 202.705 110.031 202.434 110.031C201.855 110.031 201.338 110.157 200.883 110.41C200.433 110.656 200.076 111.001 199.812 111.444C199.553 111.887 199.424 112.398 199.424 112.977V121H195.491ZM214.533 111.675V114.795H205.91V111.675H214.533ZM135.026 157.614C133.752 157.614 132.659 157.438 131.748 157.087C130.844 156.743 130.123 156.272 129.588 155.675C129.052 155.078 128.705 154.407 128.545 153.662L132.182 153.173C132.293 153.456 132.469 153.72 132.709 153.967C132.949 154.213 133.266 154.41 133.66 154.558C134.06 154.711 134.546 154.788 135.119 154.788C135.974 154.788 136.679 154.579 137.233 154.161C137.793 153.748 138.073 153.056 138.073 152.083V149.489H137.907C137.735 149.883 137.476 150.255 137.131 150.606C136.787 150.957 136.343 151.243 135.802 151.464C135.26 151.686 134.614 151.797 133.863 151.797C132.798 151.797 131.829 151.551 130.954 151.058C130.087 150.56 129.394 149.799 128.877 148.778C128.366 147.75 128.111 146.451 128.111 144.881C128.111 143.275 128.372 141.933 128.896 140.856C129.419 139.779 130.114 138.972 130.982 138.437C131.856 137.901 132.813 137.634 133.854 137.634C134.648 137.634 135.312 137.769 135.848 138.04C136.383 138.304 136.814 138.637 137.141 139.037C137.473 139.431 137.728 139.819 137.907 140.2H138.055V137.818H141.96V152.138C141.96 153.345 141.665 154.354 141.074 155.167C140.483 155.979 139.664 156.589 138.618 156.995C137.578 157.407 136.38 157.614 135.026 157.614ZM135.109 148.842C135.743 148.842 136.279 148.685 136.716 148.371C137.159 148.051 137.498 147.596 137.731 147.005C137.972 146.408 138.092 145.694 138.092 144.863C138.092 144.032 137.975 143.312 137.741 142.702C137.507 142.087 137.168 141.61 136.725 141.271C136.282 140.933 135.743 140.763 135.109 140.763C134.463 140.763 133.918 140.939 133.475 141.29C133.032 141.634 132.696 142.115 132.469 142.73C132.241 143.346 132.127 144.057 132.127 144.863C132.127 145.682 132.241 146.389 132.469 146.987C132.703 147.577 133.038 148.036 133.475 148.362C133.918 148.682 134.463 148.842 135.109 148.842ZM145.09 152V137.818H148.903V140.293H149.051C149.31 139.412 149.744 138.748 150.353 138.298C150.962 137.843 151.664 137.615 152.458 137.615C152.655 137.615 152.867 137.627 153.095 137.652C153.323 137.677 153.523 137.71 153.695 137.754V141.244C153.511 141.188 153.255 141.139 152.929 141.096C152.603 141.053 152.304 141.031 152.033 141.031C151.455 141.031 150.938 141.157 150.482 141.41C150.033 141.656 149.676 142.001 149.411 142.444C149.153 142.887 149.023 143.398 149.023 143.977V152H145.09ZM161.476 152.277C160.042 152.277 158.802 151.972 157.755 151.363C156.715 150.747 155.912 149.892 155.346 148.796C154.779 147.694 154.496 146.417 154.496 144.964C154.496 143.5 154.779 142.219 155.346 141.124C155.912 140.022 156.715 139.166 157.755 138.557C158.802 137.941 160.042 137.634 161.476 137.634C162.91 137.634 164.148 137.941 165.188 138.557C166.234 139.166 167.041 140.022 167.607 141.124C168.173 142.219 168.456 143.5 168.456 144.964C168.456 146.417 168.173 147.694 167.607 148.796C167.041 149.892 166.234 150.747 165.188 151.363C164.148 151.972 162.91 152.277 161.476 152.277ZM161.495 149.23C162.147 149.23 162.692 149.045 163.129 148.676C163.566 148.301 163.895 147.79 164.117 147.143C164.345 146.497 164.459 145.762 164.459 144.937C164.459 144.112 164.345 143.376 164.117 142.73C163.895 142.084 163.566 141.573 163.129 141.197C162.692 140.822 162.147 140.634 161.495 140.634C160.836 140.634 160.282 140.822 159.833 141.197C159.39 141.573 159.054 142.084 158.826 142.73C158.605 143.376 158.494 144.112 158.494 144.937C158.494 145.762 158.605 146.497 158.826 147.143C159.054 147.79 159.39 148.301 159.833 148.676C160.282 149.045 160.836 149.23 161.495 149.23ZM173.456 152L169.597 137.818H173.576L175.774 147.347H175.903L178.193 137.818H182.098L184.425 147.291H184.545L186.705 137.818H190.676L186.825 152H182.661L180.224 143.081H180.048L177.611 152H173.456ZM192.774 152V137.818H196.707V152H192.774ZM194.75 135.99C194.165 135.99 193.663 135.796 193.245 135.408C192.832 135.014 192.626 134.544 192.626 133.996C192.626 133.454 192.832 132.989 193.245 132.602C193.663 132.208 194.165 132.011 194.75 132.011C195.334 132.011 195.833 132.208 196.245 132.602C196.664 132.989 196.873 133.454 196.873 133.996C196.873 134.544 196.664 135.014 196.245 135.408C195.833 135.796 195.334 135.99 194.75 135.99ZM203.791 143.801V152H199.858V137.818H203.606V140.32H203.772C204.086 139.496 204.613 138.843 205.351 138.363C206.09 137.877 206.986 137.634 208.038 137.634C209.023 137.634 209.882 137.849 210.614 138.28C211.347 138.711 211.916 139.326 212.322 140.126C212.728 140.92 212.932 141.868 212.932 142.97V152H208.998V143.672C209.004 142.804 208.783 142.127 208.334 141.641C207.884 141.148 207.266 140.902 206.478 140.902C205.948 140.902 205.481 141.016 205.074 141.244C204.674 141.471 204.36 141.804 204.133 142.241C203.911 142.672 203.797 143.192 203.791 143.801ZM222.421 157.614C221.147 157.614 220.054 157.438 219.143 157.087C218.238 156.743 217.518 156.272 216.983 155.675C216.447 155.078 216.099 154.407 215.939 153.662L219.577 153.173C219.688 153.456 219.863 153.72 220.103 153.967C220.343 154.213 220.66 154.41 221.054 154.558C221.454 154.711 221.941 154.788 222.513 154.788C223.369 154.788 224.073 154.579 224.627 154.161C225.188 153.748 225.468 153.056 225.468 152.083V149.489H225.301C225.129 149.883 224.871 150.255 224.526 150.606C224.181 150.957 223.738 151.243 223.196 151.464C222.655 151.686 222.008 151.797 221.257 151.797C220.193 151.797 219.223 151.551 218.349 151.058C217.481 150.56 216.789 149.799 216.272 148.778C215.761 147.75 215.505 146.451 215.505 144.881C215.505 143.275 215.767 141.933 216.29 140.856C216.813 139.779 217.509 138.972 218.377 138.437C219.251 137.901 220.208 137.634 221.248 137.634C222.042 137.634 222.707 137.769 223.242 138.04C223.778 138.304 224.209 138.637 224.535 139.037C224.867 139.431 225.123 139.819 225.301 140.2H225.449V137.818H229.355V152.138C229.355 153.345 229.059 154.354 228.468 155.167C227.877 155.979 227.059 156.589 226.012 156.995C224.972 157.407 223.775 157.614 222.421 157.614ZM222.504 148.842C223.138 148.842 223.673 148.685 224.11 148.371C224.554 148.051 224.892 147.596 225.126 147.005C225.366 146.408 225.486 145.694 225.486 144.863C225.486 144.032 225.369 143.312 225.135 142.702C224.901 142.087 224.563 141.61 224.12 141.271C223.676 140.933 223.138 140.763 222.504 140.763C221.858 140.763 221.313 140.939 220.87 141.29C220.426 141.634 220.091 142.115 219.863 142.73C219.635 143.346 219.522 144.057 219.522 144.863C219.522 145.682 219.635 146.389 219.863 146.987C220.097 147.577 220.433 148.036 220.87 148.362C221.313 148.682 221.858 148.842 222.504 148.842ZM115.968 183.277C114.509 183.277 113.254 182.982 112.201 182.391C111.155 181.794 110.348 180.95 109.782 179.861C109.216 178.765 108.933 177.469 108.933 175.974C108.933 174.515 109.216 173.235 109.782 172.133C110.348 171.031 111.146 170.172 112.173 169.557C113.208 168.941 114.42 168.634 115.811 168.634C116.747 168.634 117.618 168.784 118.424 169.086C119.237 169.381 119.945 169.828 120.548 170.425C121.157 171.022 121.631 171.773 121.97 172.678C122.308 173.576 122.477 174.629 122.477 175.835V176.915H110.502V174.478H118.775C118.775 173.912 118.652 173.41 118.406 172.973C118.16 172.536 117.818 172.194 117.381 171.948C116.95 171.696 116.448 171.57 115.876 171.57C115.279 171.57 114.749 171.708 114.288 171.985C113.832 172.256 113.475 172.622 113.217 173.084C112.958 173.539 112.826 174.047 112.82 174.607V176.925C112.82 177.626 112.949 178.233 113.208 178.744C113.472 179.254 113.845 179.648 114.325 179.925C114.805 180.202 115.374 180.341 116.033 180.341C116.47 180.341 116.87 180.279 117.233 180.156C117.596 180.033 117.907 179.848 118.166 179.602C118.424 179.356 118.621 179.054 118.757 178.697L122.394 178.938C122.21 179.812 121.831 180.575 121.259 181.227C120.692 181.874 119.96 182.378 119.061 182.741C118.169 183.098 117.138 183.277 115.968 183.277ZM131.452 183.277C129.999 183.277 128.75 182.969 127.703 182.354C126.663 181.732 125.863 180.87 125.303 179.768C124.749 178.667 124.472 177.399 124.472 175.964C124.472 174.512 124.752 173.238 125.312 172.142C125.878 171.04 126.682 170.182 127.722 169.566C128.762 168.944 129.999 168.634 131.433 168.634C132.671 168.634 133.754 168.858 134.683 169.308C135.613 169.757 136.348 170.388 136.89 171.2C137.432 172.013 137.73 172.967 137.786 174.062H134.074C133.969 173.355 133.692 172.785 133.243 172.354C132.8 171.917 132.218 171.699 131.498 171.699C130.889 171.699 130.356 171.865 129.901 172.197C129.451 172.524 129.101 173.001 128.848 173.629C128.596 174.256 128.47 175.017 128.47 175.909C128.47 176.814 128.593 177.583 128.839 178.217C129.091 178.851 129.445 179.335 129.901 179.667C130.356 179.999 130.889 180.165 131.498 180.165C131.947 180.165 132.351 180.073 132.708 179.888C133.071 179.704 133.369 179.436 133.603 179.085C133.843 178.728 134 178.3 134.074 177.802H137.786C137.724 178.885 137.429 179.839 136.899 180.664C136.376 181.483 135.653 182.123 134.73 182.585C133.806 183.046 132.714 183.277 131.452 183.277ZM146.712 183.277C145.277 183.277 144.037 182.972 142.991 182.363C141.951 181.747 141.147 180.892 140.581 179.796C140.015 178.694 139.732 177.417 139.732 175.964C139.732 174.5 140.015 173.219 140.581 172.124C141.147 171.022 141.951 170.166 142.991 169.557C144.037 168.941 145.277 168.634 146.712 168.634C148.146 168.634 149.383 168.941 150.423 169.557C151.47 170.166 152.276 171.022 152.842 172.124C153.409 173.219 153.692 174.5 153.692 175.964C153.692 177.417 153.409 178.694 152.842 179.796C152.276 180.892 151.47 181.747 150.423 182.363C149.383 182.972 148.146 183.277 146.712 183.277ZM146.73 180.23C147.383 180.23 147.927 180.045 148.364 179.676C148.801 179.301 149.131 178.79 149.352 178.143C149.58 177.497 149.694 176.762 149.694 175.937C149.694 175.112 149.58 174.376 149.352 173.73C149.131 173.084 148.801 172.573 148.364 172.197C147.927 171.822 147.383 171.634 146.73 171.634C146.071 171.634 145.518 171.822 145.068 172.197C144.625 172.573 144.29 173.084 144.062 173.73C143.84 174.376 143.729 175.112 143.729 175.937C143.729 176.762 143.84 177.497 144.062 178.143C144.29 178.79 144.625 179.301 145.068 179.676C145.518 180.045 146.071 180.23 146.73 180.23ZM168.049 172.862L164.448 173.084C164.387 172.776 164.254 172.499 164.051 172.253C163.848 172 163.58 171.8 163.248 171.653C162.922 171.499 162.531 171.422 162.075 171.422C161.466 171.422 160.952 171.551 160.533 171.81C160.115 172.062 159.906 172.401 159.906 172.825C159.906 173.164 160.041 173.45 160.312 173.684C160.583 173.918 161.047 174.106 161.706 174.247L164.273 174.764C165.652 175.047 166.679 175.503 167.357 176.131C168.034 176.759 168.372 177.583 168.372 178.605C168.372 179.535 168.098 180.35 167.55 181.052C167.009 181.754 166.264 182.301 165.316 182.695C164.374 183.083 163.288 183.277 162.057 183.277C160.179 183.277 158.684 182.886 157.57 182.104C156.462 181.317 155.812 180.246 155.621 178.891L159.49 178.688C159.607 179.261 159.89 179.698 160.339 179.999C160.789 180.295 161.364 180.442 162.066 180.442C162.755 180.442 163.309 180.31 163.728 180.045C164.153 179.775 164.368 179.427 164.374 179.002C164.368 178.645 164.217 178.353 163.922 178.125C163.626 177.891 163.171 177.713 162.555 177.589L160.099 177.1C158.714 176.823 157.683 176.343 157.006 175.66C156.335 174.977 156 174.106 156 173.047C156 172.136 156.246 171.351 156.739 170.692C157.237 170.034 157.936 169.526 158.835 169.169C159.739 168.812 160.798 168.634 162.011 168.634C163.802 168.634 165.211 169.012 166.239 169.769C167.273 170.526 167.877 171.557 168.049 172.862ZM173.277 188.318C172.779 188.318 172.311 188.278 171.874 188.198C171.443 188.124 171.086 188.029 170.803 187.912L171.689 184.976C172.151 185.117 172.566 185.194 172.936 185.207C173.311 185.219 173.634 185.133 173.905 184.948C174.182 184.763 174.407 184.45 174.579 184.006L174.81 183.406L169.722 168.818H173.859L176.795 179.233H176.943L179.906 168.818H184.07L178.558 184.533C178.294 185.296 177.934 185.961 177.478 186.527C177.029 187.099 176.459 187.54 175.77 187.847C175.081 188.161 174.25 188.318 173.277 188.318ZM197.883 172.862L194.282 173.084C194.221 172.776 194.088 172.499 193.885 172.253C193.682 172 193.414 171.8 193.082 171.653C192.756 171.499 192.365 171.422 191.909 171.422C191.3 171.422 190.786 171.551 190.367 171.81C189.949 172.062 189.74 172.401 189.74 172.825C189.74 173.164 189.875 173.45 190.146 173.684C190.417 173.918 190.881 174.106 191.54 174.247L194.107 174.764C195.485 175.047 196.513 175.503 197.191 176.131C197.868 176.759 198.206 177.583 198.206 178.605C198.206 179.535 197.932 180.35 197.384 181.052C196.843 181.754 196.098 182.301 195.15 182.695C194.208 183.083 193.122 183.277 191.891 183.277C190.013 183.277 188.518 182.886 187.404 182.104C186.296 181.317 185.646 180.246 185.455 178.891L189.324 178.688C189.441 179.261 189.724 179.698 190.173 179.999C190.623 180.295 191.198 180.442 191.9 180.442C192.589 180.442 193.143 180.31 193.562 180.045C193.987 179.775 194.202 179.427 194.208 179.002C194.202 178.645 194.051 178.353 193.756 178.125C193.46 177.891 193.005 177.713 192.389 177.589L189.933 177.1C188.548 176.823 187.517 176.343 186.84 175.66C186.169 174.977 185.834 174.106 185.834 173.047C185.834 172.136 186.08 171.351 186.573 170.692C187.071 170.034 187.77 169.526 188.669 169.169C189.573 168.812 190.632 168.634 191.845 168.634C193.636 168.634 195.045 169.012 196.073 169.769C197.107 170.526 197.711 171.557 197.883 172.862ZM208.226 168.818V171.773H199.686V168.818H208.226ZM201.625 165.42H205.558V178.642C205.558 179.005 205.613 179.288 205.724 179.491C205.835 179.688 205.989 179.827 206.186 179.907C206.389 179.987 206.623 180.027 206.887 180.027C207.072 180.027 207.257 180.012 207.441 179.981C207.626 179.944 207.768 179.916 207.866 179.898L208.485 182.825C208.288 182.886 208.011 182.957 207.654 183.037C207.297 183.123 206.863 183.175 206.352 183.194C205.404 183.231 204.573 183.105 203.859 182.815C203.151 182.526 202.6 182.077 202.206 181.467C201.812 180.858 201.618 180.089 201.625 179.159V165.42ZM217.099 183.277C215.64 183.277 214.385 182.982 213.332 182.391C212.286 181.794 211.479 180.95 210.913 179.861C210.347 178.765 210.064 177.469 210.064 175.974C210.064 174.515 210.347 173.235 210.913 172.133C211.479 171.031 212.276 170.172 213.304 169.557C214.338 168.941 215.551 168.634 216.942 168.634C217.878 168.634 218.749 168.784 219.555 169.086C220.368 169.381 221.075 169.828 221.679 170.425C222.288 171.022 222.762 171.773 223.1 172.678C223.439 173.576 223.608 174.629 223.608 175.835V176.915H211.633V174.478H219.906C219.906 173.912 219.783 173.41 219.537 172.973C219.29 172.536 218.949 172.194 218.512 171.948C218.081 171.696 217.579 171.57 217.007 171.57C216.41 171.57 215.88 171.708 215.419 171.985C214.963 172.256 214.606 172.622 214.348 173.084C214.089 173.539 213.957 174.047 213.951 174.607V176.925C213.951 177.626 214.08 178.233 214.338 178.744C214.603 179.254 214.975 179.648 215.456 179.925C215.936 180.202 216.505 180.341 217.164 180.341C217.601 180.341 218.001 180.279 218.364 180.156C218.727 180.033 219.038 179.848 219.297 179.602C219.555 179.356 219.752 179.054 219.887 178.697L223.525 178.938C223.341 179.812 222.962 180.575 222.39 181.227C221.823 181.874 221.091 182.378 220.192 182.741C219.3 183.098 218.269 183.277 217.099 183.277ZM226.175 183V168.818H229.924V171.32H230.09C230.385 170.489 230.878 169.834 231.567 169.354C232.257 168.874 233.081 168.634 234.042 168.634C235.014 168.634 235.842 168.877 236.525 169.363C237.208 169.843 237.664 170.496 237.892 171.32H238.039C238.329 170.508 238.852 169.858 239.609 169.372C240.372 168.88 241.274 168.634 242.314 168.634C243.638 168.634 244.712 169.055 245.537 169.898C246.368 170.736 246.783 171.924 246.783 173.462V183H242.859V174.238C242.859 173.45 242.65 172.859 242.231 172.465C241.813 172.071 241.289 171.874 240.662 171.874C239.948 171.874 239.391 172.102 238.99 172.558C238.59 173.007 238.39 173.601 238.39 174.339V183H234.577V174.155C234.577 173.459 234.377 172.905 233.977 172.493C233.583 172.08 233.063 171.874 232.417 171.874C231.98 171.874 231.586 171.985 231.235 172.207C230.89 172.422 230.616 172.727 230.413 173.121C230.21 173.509 230.108 173.964 230.108 174.487V183H226.175ZM252.189 183.24C251.58 183.24 251.056 183.025 250.619 182.594C250.188 182.157 249.973 181.634 249.973 181.024C249.973 180.421 250.188 179.904 250.619 179.473C251.056 179.042 251.58 178.827 252.189 178.827C252.78 178.827 253.297 179.042 253.74 179.473C254.183 179.904 254.405 180.421 254.405 181.024C254.405 181.43 254.3 181.803 254.091 182.141C253.888 182.474 253.62 182.741 253.288 182.945C252.955 183.142 252.589 183.24 252.189 183.24Z" fill="black"/>
<defs>
<filter id="filter0_d_299_44" x="0" y="0" width="367" height="446" filterUnits="userSpaceOnUse" color-interpolation-filters="sRGB">
<feFlood flood-opacity="0" result="BackgroundImageFix"/>
<feColorMatrix in="SourceAlpha" type="matrix" values="0 0 0 0 0 0 0 0 0 0 0 0 0 0 0 0 0 0 127 0" result="hardAlpha"/>
<feOffset/>
<feGaussianBlur stdDeviation="25"/>
<feComposite in2="hardAlpha" operator="out"/>
<feColorMatrix type="matrix" values="0 0 0 0 0 0 0 0 0 0 0 0 0 0 0 0 0 0 0.01 0"/>
<feBlend mode="normal" in2="BackgroundImageFix" result="effect1_dropShadow_299_44"/>
<feBlend mode="normal" in="SourceGraphic" in2="effect1_dropShadow_299_44" result="shape"/>
</filter>
</defs>
</svg>
