<svg width="337" height="73" viewBox="0 0 337 73" fill="none" xmlns="http://www.w3.org/2000/svg">
<path d="M0 30C0 13.4315 13.4315 0 30 0H307C323.569 0 337 13.4315 337 30V43C337 59.5685 323.569 73 307 73H30C13.4315 73 0 59.5685 0 43V30Z" fill="#F4F4F4"/>
<path d="M244 35.7275C244 30.3552 248.355 26 253.728 26H302.937C308.31 26 312.665 30.3552 312.665 35.7275C312.665 41.0999 308.31 45.455 302.937 45.455H253.728C248.355 45.455 244 41.0999 244 35.7275Z" fill="#242424"/>
<path d="M262.316 32.7897L259.943 39.3352H258.579L256.201 32.7897H257.569L259.227 37.8267H259.295L260.948 32.7897H262.316Z" fill="#DFDFDF"/>
<path d="M263.514 39.3352V32.7897H264.788V39.3352H263.514ZM264.157 31.7798C263.936 31.7798 263.745 31.7059 263.586 31.5582C263.43 31.4076 263.352 31.2287 263.352 31.0213C263.352 30.8111 263.43 30.6321 263.586 30.4844C263.745 30.3338 263.936 30.2585 264.157 30.2585C264.379 30.2585 264.568 30.3338 264.724 30.4844C264.883 30.6321 264.963 30.8111 264.963 31.0213C264.963 31.2287 264.883 31.4076 264.724 31.5582C264.568 31.7059 264.379 31.7798 264.157 31.7798Z" fill="#DFDFDF"/>
<path d="M269.323 39.4673C268.678 39.4673 268.123 39.3295 267.657 39.054C267.194 38.7755 266.836 38.3849 266.583 37.8821C266.333 37.3764 266.208 36.7841 266.208 36.1051C266.208 35.4346 266.333 34.8437 266.583 34.3324C266.836 33.821 267.188 33.4219 267.64 33.1349C268.094 32.848 268.626 32.7045 269.234 32.7045C269.603 32.7045 269.961 32.7656 270.307 32.8878C270.654 33.0099 270.965 33.2017 271.241 33.463C271.516 33.7244 271.734 34.0639 271.893 34.4815C272.052 34.8963 272.131 35.4005 272.131 35.9943V36.446H266.928V35.4915H270.883C270.883 35.1562 270.815 34.8594 270.678 34.6008C270.542 34.3395 270.35 34.1335 270.103 33.9829C269.859 33.8324 269.572 33.7571 269.242 33.7571C268.884 33.7571 268.572 33.8451 268.305 34.0213C268.04 34.1946 267.836 34.4219 267.691 34.7031C267.549 34.9815 267.478 35.2841 267.478 35.6108V36.3565C267.478 36.794 267.555 37.1662 267.708 37.473C267.864 37.7798 268.082 38.0142 268.36 38.1761C268.638 38.3352 268.964 38.4147 269.336 38.4147C269.577 38.4147 269.798 38.3807 269.996 38.3125C270.195 38.2415 270.367 38.1363 270.512 37.9971C270.657 37.8579 270.768 37.6861 270.844 37.4815L272.05 37.6988C271.954 38.054 271.78 38.365 271.53 38.6321C271.283 38.8963 270.972 39.1022 270.597 39.25C270.225 39.3949 269.8 39.4673 269.323 39.4673Z" fill="#DFDFDF"/>
<path d="M274.952 39.3352L273.026 32.7897H274.343L275.626 37.5966H275.69L276.976 32.7897H278.293L279.572 37.5753H279.636L280.91 32.7897H282.226L280.305 39.3352H279.005L277.675 34.6094H277.577L276.248 39.3352H274.952Z" fill="#DFDFDF"/>
<path d="M288.516 39.4801C288.101 39.4801 287.726 39.4034 287.391 39.25C287.056 39.0937 286.79 38.8679 286.594 38.5724C286.401 38.277 286.305 37.9148 286.305 37.4858C286.305 37.1165 286.376 36.8125 286.518 36.5738C286.66 36.3352 286.851 36.1463 287.093 36.0071C287.334 35.8679 287.604 35.7628 287.903 35.6917C288.201 35.6207 288.505 35.5667 288.815 35.5298C289.207 35.4844 289.525 35.4474 289.769 35.419C290.013 35.3878 290.191 35.338 290.302 35.2699C290.413 35.2017 290.468 35.0909 290.468 34.9375V34.9076C290.468 34.5355 290.363 34.2471 290.153 34.0426C289.945 33.838 289.636 33.7358 289.224 33.7358C288.795 33.7358 288.457 33.8309 288.209 34.0213C287.965 34.2088 287.796 34.4176 287.702 34.6477L286.505 34.375C286.647 33.9772 286.854 33.6562 287.127 33.4119C287.403 33.1648 287.719 32.9858 288.077 32.875C288.435 32.7613 288.812 32.7045 289.207 32.7045C289.468 32.7045 289.745 32.7358 290.038 32.7983C290.333 32.8579 290.609 32.9687 290.864 33.1307C291.123 33.2926 291.334 33.5241 291.499 33.8253C291.664 34.1236 291.746 34.5113 291.746 34.9886V39.3352H290.502V38.4403H290.451C290.369 38.6051 290.245 38.767 290.08 38.9261C289.915 39.0852 289.704 39.2173 289.445 39.3224C289.187 39.4275 288.877 39.4801 288.516 39.4801ZM288.793 38.4574C289.146 38.4574 289.447 38.3878 289.697 38.2486C289.949 38.1094 290.141 37.9275 290.272 37.7031C290.405 37.4758 290.472 37.2329 290.472 36.9744V36.1307C290.427 36.1761 290.339 36.2187 290.208 36.2585C290.08 36.2954 289.934 36.3281 289.769 36.3565C289.604 36.3821 289.444 36.4062 289.288 36.429C289.131 36.4488 289.001 36.4659 288.896 36.4801C288.648 36.5113 288.423 36.5639 288.218 36.6378C288.016 36.7116 287.854 36.8182 287.732 36.9574C287.613 37.0937 287.553 37.2755 287.553 37.5028C287.553 37.8182 287.67 38.0568 287.903 38.2187C288.136 38.3778 288.432 38.4574 288.793 38.4574Z" fill="#DFDFDF"/>
<path d="M294.718 30.6079V39.3352H293.443V30.6079H294.718Z" fill="#DFDFDF"/>
<path d="M297.706 30.6079V39.3352H296.432V30.6079H297.706Z" fill="#DFDFDF"/>
<path d="M23.4631 24.4062V23.2727H30.2173V24.4062H27.4943V32H26.1818V24.4062H23.4631Z" fill="#707070"/>
<path d="M32.8818 28.1136V32H31.6076V23.2727H32.8647V26.5199H32.9457C33.0991 26.1676 33.3335 25.8878 33.6488 25.6804C33.9642 25.473 34.3761 25.3693 34.8846 25.3693C35.3335 25.3693 35.7255 25.4616 36.0607 25.6463C36.3988 25.831 36.6602 26.1065 36.8448 26.473C37.0323 26.8366 37.1261 27.2912 37.1261 27.8366V32H35.8519V27.9901C35.8519 27.5099 35.7284 27.1378 35.4812 26.8736C35.234 26.6065 34.8903 26.473 34.4499 26.473C34.1488 26.473 33.8789 26.5369 33.6403 26.6648C33.4045 26.7926 33.2184 26.9801 33.0821 27.2273C32.9485 27.4716 32.8818 27.767 32.8818 28.1136Z" fill="#707070"/>
<path d="M41.6474 32.1321C41.0025 32.1321 40.4471 31.9943 39.9812 31.7188C39.5181 31.4403 39.1602 31.0497 38.9073 30.5469C38.6573 30.0412 38.5323 29.4489 38.5323 28.7699C38.5323 28.0994 38.6573 27.5085 38.9073 26.9972C39.1602 26.4858 39.5124 26.0866 39.9642 25.7997C40.4187 25.5128 40.9499 25.3693 41.5579 25.3693C41.9272 25.3693 42.2852 25.4304 42.6318 25.5526C42.9784 25.6747 43.2894 25.8665 43.565 26.1278C43.8406 26.3892 44.0579 26.7287 44.217 27.1463C44.3761 27.5611 44.4556 28.0653 44.4556 28.6591V29.1108H39.2525V28.1562H43.2071C43.2071 27.821 43.1389 27.5241 43.0025 27.2656C42.8661 27.0043 42.6744 26.7983 42.4272 26.6477C42.1829 26.4972 41.896 26.4219 41.5664 26.4219C41.2085 26.4219 40.896 26.5099 40.6289 26.6861C40.3647 26.8594 40.1602 27.0866 40.0153 27.3679C39.8732 27.6463 39.8022 27.9489 39.8022 28.2756V29.0213C39.8022 29.4588 39.8789 29.831 40.0323 30.1378C40.1886 30.4446 40.4059 30.679 40.6843 30.8409C40.9627 31 41.288 31.0795 41.6602 31.0795C41.9017 31.0795 42.1218 31.0455 42.3207 30.9773C42.5196 30.9062 42.6914 30.8011 42.8363 30.6619C42.9812 30.5227 43.092 30.3509 43.1687 30.1463L44.3747 30.3636C44.2781 30.7187 44.1048 31.0298 43.8548 31.2969C43.6076 31.5611 43.2965 31.767 42.9215 31.9148C42.5494 32.0597 42.1247 32.1321 41.6474 32.1321Z" fill="#707070"/>
<path d="M50.9499 32.1449C50.5352 32.1449 50.1602 32.0682 49.8249 31.9148C49.4897 31.7585 49.2241 31.5327 49.0281 31.2372C48.8349 30.9418 48.7383 30.5795 48.7383 30.1506C48.7383 29.7812 48.8093 29.4773 48.9514 29.2386C49.0934 29 49.2852 28.8111 49.5267 28.6719C49.7681 28.5327 50.038 28.4276 50.3363 28.3565C50.6346 28.2855 50.9386 28.2315 51.2482 28.1946C51.6403 28.1491 51.9585 28.1122 52.2028 28.0838C52.4471 28.0526 52.6247 28.0028 52.7355 27.9347C52.8463 27.8665 52.9017 27.7557 52.9017 27.6023V27.5724C52.9017 27.2003 52.7965 26.9119 52.5863 26.7074C52.3789 26.5028 52.0693 26.4006 51.6573 26.4006C51.2284 26.4006 50.8903 26.4957 50.6431 26.6861C50.3988 26.8736 50.2298 27.0824 50.136 27.3125L48.9386 27.0398C49.0806 26.642 49.288 26.321 49.5607 26.0767C49.8363 25.8295 50.1531 25.6506 50.511 25.5398C50.869 25.4261 51.2454 25.3693 51.6403 25.3693C51.9017 25.3693 52.1786 25.4006 52.4713 25.4631C52.7667 25.5227 53.0423 25.6335 53.298 25.7955C53.5565 25.9574 53.7681 26.1889 53.9329 26.4901C54.0977 26.7884 54.1801 27.1761 54.1801 27.6534V32H52.9357V31.1051H52.8846C52.8022 31.2699 52.6786 31.4318 52.5139 31.5909C52.3491 31.75 52.1374 31.8821 51.8789 31.9872C51.6204 32.0923 51.3107 32.1449 50.9499 32.1449ZM51.2269 31.1222C51.5792 31.1222 51.8803 31.0526 52.1303 30.9134C52.3832 30.7741 52.5749 30.5923 52.7056 30.3679C52.8392 30.1406 52.9059 29.8977 52.9059 29.6392V28.7955C52.8605 28.8409 52.7724 28.8835 52.6417 28.9233C52.5139 28.9602 52.3676 28.9929 52.2028 29.0213C52.038 29.0469 51.8775 29.071 51.7213 29.0938C51.565 29.1136 51.4343 29.1307 51.3292 29.1449C51.082 29.1761 50.8562 29.2287 50.6517 29.3026C50.4499 29.3764 50.288 29.483 50.1659 29.6222C50.0465 29.7585 49.9869 29.9403 49.9869 30.1676C49.9869 30.483 50.1034 30.7216 50.3363 30.8835C50.5693 31.0426 50.8661 31.1222 51.2269 31.1222Z" fill="#707070"/>
<path d="M55.8771 32V25.4545H57.1513V32H55.8771ZM56.5206 24.4446C56.299 24.4446 56.1087 24.3707 55.9496 24.223C55.7933 24.0724 55.7152 23.8935 55.7152 23.6861C55.7152 23.4759 55.7933 23.2969 55.9496 23.1491C56.1087 22.9986 56.299 22.9233 56.5206 22.9233C56.7422 22.9233 56.9311 22.9986 57.0874 23.1491C57.2465 23.2969 57.326 23.4759 57.326 23.6861C57.326 23.8935 57.2465 24.0724 57.0874 24.223C56.9311 24.3707 56.7422 24.4446 56.5206 24.4446Z" fill="#707070"/>
<path d="M62.0412 32V25.4545H63.3154V32H62.0412ZM62.6847 24.4446C62.4631 24.4446 62.2727 24.3707 62.1137 24.223C61.9574 24.0724 61.8793 23.8935 61.8793 23.6861C61.8793 23.4759 61.9574 23.2969 62.1137 23.1491C62.2727 22.9986 62.4631 22.9233 62.6847 22.9233C62.9063 22.9233 63.0952 22.9986 63.2514 23.1491C63.4105 23.2969 63.4901 23.4759 63.4901 23.6861C63.4901 23.8935 63.4105 24.0724 63.2514 24.223C63.0952 24.3707 62.9063 24.4446 62.6847 24.4446Z" fill="#707070"/>
<path d="M69.9343 27.0526L68.7795 27.2571C68.7312 27.1094 68.6545 26.9688 68.5494 26.8352C68.4471 26.7017 68.3079 26.5923 68.1318 26.5071C67.9556 26.4219 67.7355 26.3793 67.4713 26.3793C67.1105 26.3793 66.8093 26.4602 66.5678 26.6222C66.3264 26.7812 66.2056 26.9872 66.2056 27.2401C66.2056 27.4588 66.2866 27.6349 66.4485 27.7685C66.6105 27.902 66.8718 28.0114 67.2326 28.0966L68.2724 28.3352C68.8747 28.4744 69.3235 28.6889 69.619 28.9787C69.9144 29.2685 70.0622 29.6449 70.0622 30.108C70.0622 30.5 69.9485 30.8494 69.7213 31.1562C69.4968 31.4602 69.1829 31.6989 68.7795 31.8722C68.3789 32.0455 67.9144 32.1321 67.386 32.1321C66.6531 32.1321 66.0551 31.9759 65.592 31.6634C65.1289 31.348 64.8448 30.9006 64.7397 30.321L65.9713 30.1335C66.048 30.4545 66.2056 30.6974 66.4443 30.8622C66.6829 31.0241 66.994 31.1051 67.3775 31.1051C67.7951 31.1051 68.1289 31.0185 68.3789 30.8452C68.6289 30.669 68.7539 30.4545 68.7539 30.2017C68.7539 29.9972 68.6772 29.8253 68.5238 29.6861C68.3732 29.5469 68.1417 29.4418 67.8292 29.3707L66.7213 29.1278C66.1105 28.9886 65.6588 28.767 65.3661 28.4631C65.0764 28.1591 64.9315 27.7741 64.9315 27.3082C64.9315 26.9219 65.0394 26.5838 65.2553 26.294C65.4713 26.0043 65.7695 25.7784 66.1502 25.6165C66.5309 25.4517 66.967 25.3693 67.4585 25.3693C68.1659 25.3693 68.7227 25.5227 69.1289 25.8295C69.5352 26.1335 69.8036 26.5412 69.9343 27.0526Z" fill="#707070"/>
<path d="M80.2383 25.4545L77.8647 32H76.5011L74.1232 25.4545H75.4911L77.1488 30.4915H77.217L78.8704 25.4545H80.2383Z" fill="#707070"/>
<path d="M84.0341 32.1321C83.3892 32.1321 82.8338 31.9943 82.3679 31.7188C81.9048 31.4403 81.5469 31.0497 81.2941 30.5469C81.0441 30.0412 80.9191 29.4489 80.9191 28.7699C80.9191 28.0994 81.0441 27.5085 81.2941 26.9972C81.5469 26.4858 81.8992 26.0866 82.3509 25.7997C82.8054 25.5128 83.3367 25.3693 83.9446 25.3693C84.3139 25.3693 84.6719 25.4304 85.0185 25.5526C85.3651 25.6747 85.6762 25.8665 85.9517 26.1278C86.2273 26.3892 86.4446 26.7287 86.6037 27.1463C86.7628 27.5611 86.8423 28.0653 86.8423 28.6591V29.1108H81.6392V28.1562H85.5938C85.5938 27.821 85.5256 27.5241 85.3892 27.2656C85.2529 27.0043 85.0611 26.7983 84.8139 26.6477C84.5696 26.4972 84.2827 26.4219 83.9531 26.4219C83.5952 26.4219 83.2827 26.5099 83.0156 26.6861C82.7514 26.8594 82.5469 27.0866 82.402 27.3679C82.26 27.6463 82.1889 27.9489 82.1889 28.2756V29.0213C82.1889 29.4588 82.2656 29.831 82.4191 30.1378C82.5753 30.4446 82.7926 30.679 83.071 30.8409C83.3494 31 83.6747 31.0795 84.0469 31.0795C84.2884 31.0795 84.5085 31.0455 84.7074 30.9773C84.9063 30.9062 85.0781 30.8011 85.223 30.6619C85.3679 30.5227 85.4787 30.3509 85.5554 30.1463L86.7614 30.3636C86.6648 30.7187 86.4915 31.0298 86.2415 31.2969C85.9943 31.5611 85.6833 31.767 85.3083 31.9148C84.9361 32.0597 84.5114 32.1321 84.0341 32.1321Z" fill="#707070"/>
<path d="M88.2561 32V25.4545H89.4876V26.4943H89.5558C89.6751 26.142 89.8853 25.8651 90.1865 25.6634C90.4904 25.4588 90.8342 25.3565 91.2177 25.3565C91.2973 25.3565 91.391 25.3594 91.499 25.3651C91.6098 25.3707 91.6964 25.3778 91.7589 25.3864V26.6051C91.7078 26.5909 91.6168 26.5753 91.4862 26.5582C91.3555 26.5384 91.2248 26.5284 91.0941 26.5284C90.793 26.5284 90.5245 26.5923 90.2887 26.7202C90.0558 26.8452 89.8711 27.0199 89.7347 27.2443C89.5984 27.4659 89.5302 27.7187 89.5302 28.0028V32H88.2561Z" fill="#707070"/>
<path d="M93.8661 34.4545C93.6758 34.4545 93.5025 34.4389 93.3463 34.4077C93.19 34.3793 93.0735 34.348 92.9968 34.3139L93.3036 33.2699C93.5366 33.3324 93.744 33.3594 93.9258 33.3509C94.1076 33.3423 94.2681 33.2741 94.4073 33.1463C94.5494 33.0185 94.6744 32.8097 94.7823 32.5199L94.94 32.0852L92.5451 25.4545H93.9088L95.5664 30.5341H95.6346L97.2923 25.4545H98.6602L95.9627 32.8736C95.8377 33.2145 95.6786 33.5028 95.4855 33.7386C95.2923 33.9773 95.0622 34.1563 94.7951 34.2756C94.5281 34.3949 94.2184 34.4545 93.8661 34.4545Z" fill="#707070"/>
<path d="M103.033 34.4545V25.4545H104.278V26.5156H104.384C104.458 26.3793 104.565 26.2216 104.704 26.0426C104.843 25.8636 105.036 25.7074 105.283 25.5739C105.531 25.4375 105.857 25.3693 106.264 25.3693C106.792 25.3693 107.264 25.5028 107.678 25.7699C108.093 26.0369 108.418 26.4219 108.654 26.9247C108.893 27.4276 109.012 28.0327 109.012 28.7401C109.012 29.4474 108.894 30.054 108.658 30.5597C108.423 31.0625 108.099 31.4503 107.687 31.723C107.275 31.9929 106.805 32.1278 106.276 32.1278C105.879 32.1278 105.553 32.0611 105.3 31.9276C105.05 31.794 104.854 31.6378 104.712 31.4588C104.57 31.2798 104.461 31.1207 104.384 30.9815H104.308V34.4545H103.033ZM104.282 28.7273C104.282 29.1875 104.349 29.5909 104.482 29.9375C104.616 30.2841 104.809 30.5554 105.062 30.7514C105.315 30.9446 105.624 31.0412 105.991 31.0412C106.371 31.0412 106.69 30.9403 106.945 30.7386C107.201 30.5341 107.394 30.2571 107.525 29.9077C107.658 29.5582 107.725 29.1648 107.725 28.7273C107.725 28.2955 107.66 27.9077 107.529 27.5639C107.401 27.2202 107.208 26.9489 106.95 26.75C106.694 26.5511 106.374 26.4517 105.991 26.4517C105.621 26.4517 105.309 26.5469 105.053 26.7372C104.8 26.9276 104.609 27.1932 104.478 27.5341C104.347 27.875 104.282 28.2727 104.282 28.7273Z" fill="#707070"/>
<path d="M113.197 32.1321C112.583 32.1321 112.048 31.9915 111.59 31.7102C111.133 31.429 110.778 31.0355 110.525 30.5298C110.272 30.0241 110.146 29.4332 110.146 28.7571C110.146 28.0781 110.272 27.4844 110.525 26.9759C110.778 26.4673 111.133 26.0724 111.59 25.7912C112.048 25.5099 112.583 25.3693 113.197 25.3693C113.81 25.3693 114.346 25.5099 114.803 25.7912C115.261 26.0724 115.616 26.4673 115.869 26.9759C116.121 27.4844 116.248 28.0781 116.248 28.7571C116.248 29.4332 116.121 30.0241 115.869 30.5298C115.616 31.0355 115.261 31.429 114.803 31.7102C114.346 31.9915 113.81 32.1321 113.197 32.1321ZM113.201 31.0625C113.599 31.0625 113.928 30.9574 114.19 30.7472C114.451 30.5369 114.644 30.2571 114.769 29.9077C114.897 29.5582 114.961 29.1733 114.961 28.7528C114.961 28.3352 114.897 27.9517 114.769 27.6023C114.644 27.25 114.451 26.9673 114.19 26.7543C113.928 26.5412 113.599 26.4347 113.201 26.4347C112.8 26.4347 112.468 26.5412 112.204 26.7543C111.942 26.9673 111.748 27.25 111.62 27.6023C111.495 27.9517 111.433 28.3352 111.433 28.7528C111.433 29.1733 111.495 29.5582 111.62 29.9077C111.748 30.2571 111.942 30.5369 112.204 30.7472C112.468 30.9574 112.8 31.0625 113.201 31.0625Z" fill="#707070"/>
<path d="M118.89 32L116.964 25.4545H118.281L119.563 30.2614H119.627L120.914 25.4545H122.231L123.509 30.2401H123.573L124.847 25.4545H126.164L124.242 32H122.942L121.613 27.2741H121.515L120.185 32H118.89Z" fill="#707070"/>
<path d="M129.995 32.1321C129.35 32.1321 128.795 31.9943 128.329 31.7188C127.866 31.4403 127.508 31.0497 127.255 30.5469C127.005 30.0412 126.88 29.4489 126.88 28.7699C126.88 28.0994 127.005 27.5085 127.255 26.9972C127.508 26.4858 127.86 26.0866 128.312 25.7997C128.766 25.5128 129.298 25.3693 129.906 25.3693C130.275 25.3693 130.633 25.4304 130.979 25.5526C131.326 25.6747 131.637 25.8665 131.913 26.1278C132.188 26.3892 132.406 26.7287 132.565 27.1463C132.724 27.5611 132.803 28.0653 132.803 28.6591V29.1108H127.6V28.1562H131.555C131.555 27.821 131.487 27.5241 131.35 27.2656C131.214 27.0043 131.022 26.7983 130.775 26.6477C130.531 26.4972 130.244 26.4219 129.914 26.4219C129.556 26.4219 129.244 26.5099 128.977 26.6861C128.712 26.8594 128.508 27.0866 128.363 27.3679C128.221 27.6463 128.15 27.9489 128.15 28.2756V29.0213C128.15 29.4588 128.227 29.831 128.38 30.1378C128.536 30.4446 128.754 30.679 129.032 30.8409C129.31 31 129.636 31.0795 130.008 31.0795C130.249 31.0795 130.469 31.0455 130.668 30.9773C130.867 30.9062 131.039 30.8011 131.184 30.6619C131.329 30.5227 131.44 30.3509 131.516 30.1463L132.722 30.3636C132.626 30.7187 132.452 31.0298 132.202 31.2969C131.955 31.5611 131.644 31.767 131.269 31.9148C130.897 32.0597 130.472 32.1321 129.995 32.1321Z" fill="#707070"/>
<path d="M134.217 32V25.4545H135.449V26.4943H135.517C135.636 26.142 135.846 25.8651 136.147 25.6634C136.451 25.4588 136.795 25.3565 137.179 25.3565C137.258 25.3565 137.352 25.3594 137.46 25.3651C137.571 25.3707 137.657 25.3778 137.72 25.3864V26.6051C137.669 26.5909 137.578 26.5753 137.447 26.5582C137.316 26.5384 137.186 26.5284 137.055 26.5284C136.754 26.5284 136.485 26.5923 136.25 26.7202C136.017 26.8452 135.832 27.0199 135.696 27.2443C135.559 27.4659 135.491 27.7187 135.491 28.0028V32H134.217Z" fill="#707070"/>
<path d="M142.324 25.4545V26.4773H138.625V25.4545H142.324ZM139.64 32V24.696C139.64 24.2869 139.729 23.9474 139.908 23.6776C140.087 23.4048 140.324 23.2017 140.62 23.0682C140.915 22.9318 141.236 22.8636 141.583 22.8636C141.838 22.8636 142.057 22.8849 142.239 22.9276C142.421 22.9673 142.556 23.0043 142.644 23.0384L142.346 24.0696C142.286 24.0526 142.209 24.0327 142.115 24.0099C142.022 23.9844 141.908 23.9716 141.775 23.9716C141.465 23.9716 141.243 24.0483 141.11 24.2017C140.979 24.3551 140.914 24.5767 140.914 24.8665V32H139.64Z" fill="#707070"/>
<path d="M147.785 29.2855V25.4545H149.064V32H147.811V30.8665H147.743C147.592 31.2159 147.351 31.5071 147.018 31.7401C146.689 31.9702 146.278 32.0852 145.787 32.0852C145.366 32.0852 144.994 31.9929 144.67 31.8082C144.349 31.6207 144.096 31.3437 143.912 30.9773C143.73 30.6108 143.639 30.1577 143.639 29.6179V25.4545H144.913V29.4645C144.913 29.9105 145.037 30.2656 145.284 30.5298C145.531 30.794 145.852 30.9261 146.247 30.9261C146.485 30.9261 146.723 30.8665 146.958 30.7472C147.197 30.6278 147.395 30.4474 147.551 30.206C147.71 29.9645 147.788 29.6577 147.785 29.2855Z" fill="#707070"/>
<path d="M152.05 23.2727V32H150.776V23.2727H152.05Z" fill="#707070"/>
<path d="M155.038 23.2727V32H153.764V23.2727H155.038Z" fill="#707070"/>
<path d="M160.03 32V23.2727H161.304V26.5156H161.381C161.455 26.3793 161.561 26.2216 161.701 26.0426C161.84 25.8636 162.033 25.7074 162.28 25.5739C162.527 25.4375 162.854 25.3693 163.26 25.3693C163.789 25.3693 164.26 25.5028 164.675 25.7699C165.09 26.0369 165.415 26.4219 165.651 26.9247C165.89 27.4276 166.009 28.0327 166.009 28.7401C166.009 29.4474 165.891 30.054 165.655 30.5597C165.419 31.0625 165.096 31.4503 164.684 31.723C164.272 31.9929 163.802 32.1278 163.273 32.1278C162.875 32.1278 162.55 32.0611 162.297 31.9276C162.047 31.794 161.851 31.6378 161.709 31.4588C161.567 31.2798 161.458 31.1207 161.381 30.9815H161.275V32H160.03ZM161.279 28.7273C161.279 29.1875 161.346 29.5909 161.479 29.9375C161.613 30.2841 161.806 30.5554 162.059 30.7514C162.311 30.9446 162.621 31.0412 162.988 31.0412C163.368 31.0412 163.686 30.9403 163.942 30.7386C164.198 30.5341 164.391 30.2571 164.522 29.9077C164.655 29.5582 164.722 29.1648 164.722 28.7273C164.722 28.2955 164.657 27.9077 164.526 27.5639C164.398 27.2202 164.205 26.9489 163.946 26.75C163.691 26.5511 163.371 26.4517 162.988 26.4517C162.618 26.4517 162.306 26.5469 162.05 26.7372C161.797 26.9276 161.605 27.1932 161.475 27.5341C161.344 27.875 161.279 28.2727 161.279 28.7273Z" fill="#707070"/>
<path d="M170.261 32.1321C169.616 32.1321 169.06 31.9943 168.594 31.7188C168.131 31.4403 167.773 31.0497 167.521 30.5469C167.271 30.0412 167.146 29.4489 167.146 28.7699C167.146 28.0994 167.271 27.5085 167.521 26.9972C167.773 26.4858 168.126 26.0866 168.577 25.7997C169.032 25.5128 169.563 25.3693 170.171 25.3693C170.541 25.3693 170.898 25.4304 171.245 25.5526C171.592 25.6747 171.903 25.8665 172.178 26.1278C172.454 26.3892 172.671 26.7287 172.83 27.1463C172.989 27.5611 173.069 28.0653 173.069 28.6591V29.1108H167.866V28.1562H171.82C171.82 27.821 171.752 27.5241 171.616 27.2656C171.479 27.0043 171.288 26.7983 171.04 26.6477C170.796 26.4972 170.509 26.4219 170.18 26.4219C169.822 26.4219 169.509 26.5099 169.242 26.6861C168.978 26.8594 168.773 27.0866 168.629 27.3679C168.487 27.6463 168.415 27.9489 168.415 28.2756V29.0213C168.415 29.4588 168.492 29.831 168.646 30.1378C168.802 30.4446 169.019 30.679 169.298 30.8409C169.576 31 169.901 31.0795 170.273 31.0795C170.515 31.0795 170.735 31.0455 170.934 30.9773C171.133 30.9062 171.305 30.8011 171.45 30.6619C171.594 30.5227 171.705 30.3509 171.782 30.1463L172.988 30.3636C172.891 30.7187 172.718 31.0298 172.468 31.2969C172.221 31.5611 171.91 31.767 171.535 31.9148C171.163 32.0597 170.738 32.1321 170.261 32.1321Z" fill="#707070"/>
<path d="M177.24 32.1321C176.606 32.1321 176.061 31.9886 175.603 31.7017C175.149 31.4119 174.799 31.0128 174.555 30.5043C174.311 29.9957 174.189 29.4134 174.189 28.7571C174.189 28.0923 174.314 27.5057 174.564 26.9972C174.814 26.4858 175.166 26.0866 175.62 25.7997C176.075 25.5128 176.61 25.3693 177.227 25.3693C177.724 25.3693 178.167 25.4616 178.556 25.6463C178.946 25.8281 179.26 26.0838 179.498 26.4134C179.74 26.7429 179.883 27.1278 179.929 27.5682H178.689C178.62 27.2614 178.464 26.9972 178.22 26.7756C177.978 26.554 177.654 26.4432 177.248 26.4432C176.893 26.4432 176.582 26.5369 176.315 26.7244C176.051 26.9091 175.845 27.1733 175.697 27.517C175.549 27.858 175.476 28.2614 175.476 28.7273C175.476 29.2045 175.548 29.6165 175.693 29.9631C175.838 30.3097 176.042 30.5781 176.306 30.7685C176.574 30.9588 176.887 31.054 177.248 31.054C177.49 31.054 177.708 31.0099 177.904 30.9219C178.103 30.831 178.27 30.7017 178.403 30.5341C178.539 30.3665 178.635 30.1648 178.689 29.929H179.929C179.883 30.3523 179.745 30.7301 179.515 31.0625C179.285 31.3949 178.977 31.6562 178.591 31.8466C178.207 32.0369 177.757 32.1321 177.24 32.1321Z" fill="#707070"/>
<path d="M183.196 32.1449C182.781 32.1449 182.406 32.0682 182.071 31.9148C181.736 31.7585 181.47 31.5327 181.274 31.2372C181.081 30.9418 180.984 30.5795 180.984 30.1506C180.984 29.7812 181.055 29.4773 181.197 29.2386C181.34 29 181.531 28.8111 181.773 28.6719C182.014 28.5327 182.284 28.4276 182.582 28.3565C182.881 28.2855 183.185 28.2315 183.494 28.1946C183.886 28.1491 184.205 28.1122 184.449 28.0838C184.693 28.0526 184.871 28.0028 184.982 27.9347C185.092 27.8665 185.148 27.7557 185.148 27.6023V27.5724C185.148 27.2003 185.043 26.9119 184.832 26.7074C184.625 26.5028 184.315 26.4006 183.903 26.4006C183.474 26.4006 183.136 26.4957 182.889 26.6861C182.645 26.8736 182.476 27.0824 182.382 27.3125L181.185 27.0398C181.327 26.642 181.534 26.321 181.807 26.0767C182.082 25.8295 182.399 25.6506 182.757 25.5398C183.115 25.4261 183.491 25.3693 183.886 25.3693C184.148 25.3693 184.425 25.4006 184.717 25.4631C185.013 25.5227 185.288 25.6335 185.544 25.7955C185.803 25.9574 186.014 26.1889 186.179 26.4901C186.344 26.7884 186.426 27.1761 186.426 27.6534V32H185.182V31.1051H185.131C185.048 31.2699 184.925 31.4318 184.76 31.5909C184.595 31.75 184.384 31.8821 184.125 31.9872C183.866 32.0923 183.557 32.1449 183.196 32.1449ZM183.473 31.1222C183.825 31.1222 184.126 31.0526 184.376 30.9134C184.629 30.7741 184.821 30.5923 184.952 30.3679C185.085 30.1406 185.152 29.8977 185.152 29.6392V28.7955C185.107 28.8409 185.018 28.8835 184.888 28.9233C184.76 28.9602 184.614 28.9929 184.449 29.0213C184.284 29.0469 184.124 29.071 183.967 29.0938C183.811 29.1136 183.68 29.1307 183.575 29.1449C183.328 29.1761 183.102 29.2287 182.898 29.3026C182.696 29.3764 182.534 29.483 182.412 29.6222C182.293 29.7585 182.233 29.9403 182.233 30.1676C182.233 30.483 182.349 30.7216 182.582 30.8835C182.815 31.0426 183.112 31.1222 183.473 31.1222Z" fill="#707070"/>
<path d="M192.27 29.2855V25.4545H193.548V32H192.295V30.8665H192.227C192.076 31.2159 191.835 31.5071 191.503 31.7401C191.173 31.9702 190.762 32.0852 190.271 32.0852C189.851 32.0852 189.478 31.9929 189.154 31.8082C188.833 31.6207 188.581 31.3437 188.396 30.9773C188.214 30.6108 188.123 30.1577 188.123 29.6179V25.4545H189.397V29.4645C189.397 29.9105 189.521 30.2656 189.768 30.5298C190.015 30.794 190.336 30.9261 190.731 30.9261C190.97 30.9261 191.207 30.8665 191.443 30.7472C191.681 30.6278 191.879 30.4474 192.035 30.206C192.194 29.9645 192.272 29.6577 192.27 29.2855Z" fill="#707070"/>
<path d="M200.165 27.0526L199.01 27.2571C198.962 27.1094 198.885 26.9688 198.78 26.8352C198.678 26.7017 198.538 26.5923 198.362 26.5071C198.186 26.4219 197.966 26.3793 197.702 26.3793C197.341 26.3793 197.04 26.4602 196.798 26.6222C196.557 26.7812 196.436 26.9872 196.436 27.2401C196.436 27.4588 196.517 27.6349 196.679 27.7685C196.841 27.902 197.102 28.0114 197.463 28.0966L198.503 28.3352C199.105 28.4744 199.554 28.6889 199.849 28.9787C200.145 29.2685 200.293 29.6449 200.293 30.108C200.293 30.5 200.179 30.8494 199.952 31.1562C199.727 31.4602 199.413 31.6989 199.01 31.8722C198.609 32.0455 198.145 32.1321 197.617 32.1321C196.884 32.1321 196.286 31.9759 195.822 31.6634C195.359 31.348 195.075 30.9006 194.97 30.321L196.202 30.1335C196.278 30.4545 196.436 30.6974 196.675 30.8622C196.913 31.0241 197.224 31.1051 197.608 31.1051C198.026 31.1051 198.359 31.0185 198.609 30.8452C198.859 30.669 198.984 30.4545 198.984 30.2017C198.984 29.9972 198.908 29.8253 198.754 29.6861C198.604 29.5469 198.372 29.4418 198.06 29.3707L196.952 29.1278C196.341 28.9886 195.889 28.767 195.597 28.4631C195.307 28.1591 195.162 27.7741 195.162 27.3082C195.162 26.9219 195.27 26.5838 195.486 26.294C195.702 26.0043 196 25.7784 196.381 25.6165C196.761 25.4517 197.197 25.3693 197.689 25.3693C198.396 25.3693 198.953 25.5227 199.359 25.8295C199.766 26.1335 200.034 26.5412 200.165 27.0526Z" fill="#707070"/>
<path d="M204.515 32.1321C203.87 32.1321 203.314 31.9943 202.848 31.7188C202.385 31.4403 202.027 31.0497 201.775 30.5469C201.525 30.0412 201.4 29.4489 201.4 28.7699C201.4 28.0994 201.525 27.5085 201.775 26.9972C202.027 26.4858 202.38 26.0866 202.831 25.7997C203.286 25.5128 203.817 25.3693 204.425 25.3693C204.794 25.3693 205.152 25.4304 205.499 25.5526C205.846 25.6747 206.157 25.8665 206.432 26.1278C206.708 26.3892 206.925 26.7287 207.084 27.1463C207.243 27.5611 207.323 28.0653 207.323 28.6591V29.1108H202.12V28.1562H206.074C206.074 27.821 206.006 27.5241 205.87 27.2656C205.733 27.0043 205.542 26.7983 205.294 26.6477C205.05 26.4972 204.763 26.4219 204.434 26.4219C204.076 26.4219 203.763 26.5099 203.496 26.6861C203.232 26.8594 203.027 27.0866 202.882 27.3679C202.74 27.6463 202.669 27.9489 202.669 28.2756V29.0213C202.669 29.4588 202.746 29.831 202.9 30.1378C203.056 30.4446 203.273 30.679 203.552 30.8409C203.83 31 204.155 31.0795 204.527 31.0795C204.769 31.0795 204.989 31.0455 205.188 30.9773C205.387 30.9062 205.559 30.8011 205.703 30.6619C205.848 30.5227 205.959 30.3509 206.036 30.1463L207.242 30.3636C207.145 30.7187 206.972 31.0298 206.722 31.2969C206.475 31.5611 206.164 31.767 205.789 31.9148C205.417 32.0597 204.992 32.1321 204.515 32.1321Z" fill="#707070"/>
<path d="M213.331 32L211.405 25.4545H212.722L214.005 30.2614H214.069L215.355 25.4545H216.672L217.951 30.2401H218.015L219.289 25.4545H220.605L218.684 32H217.384L216.054 27.2741H215.956L214.627 32H213.331Z" fill="#707070"/>
<path d="M224.436 32.1321C223.792 32.1321 223.236 31.9943 222.77 31.7188C222.307 31.4403 221.949 31.0497 221.696 30.5469C221.446 30.0412 221.321 29.4489 221.321 28.7699C221.321 28.0994 221.446 27.5085 221.696 26.9972C221.949 26.4858 222.302 26.0866 222.753 25.7997C223.208 25.5128 223.739 25.3693 224.347 25.3693C224.716 25.3693 225.074 25.4304 225.421 25.5526C225.767 25.6747 226.078 25.8665 226.354 26.1278C226.63 26.3892 226.847 26.7287 227.006 27.1463C227.165 27.5611 227.245 28.0653 227.245 28.6591V29.1108H222.042V28.1562H225.996C225.996 27.821 225.928 27.5241 225.792 27.2656C225.655 27.0043 225.463 26.7983 225.216 26.6477C224.972 26.4972 224.685 26.4219 224.355 26.4219C223.998 26.4219 223.685 26.5099 223.418 26.6861C223.154 26.8594 222.949 27.0866 222.804 27.3679C222.662 27.6463 222.591 27.9489 222.591 28.2756V29.0213C222.591 29.4588 222.668 29.831 222.821 30.1378C222.978 30.4446 223.195 30.679 223.473 30.8409C223.752 31 224.077 31.0795 224.449 31.0795C224.691 31.0795 224.911 31.0455 225.11 30.9773C225.309 30.9062 225.48 30.8011 225.625 30.6619C225.77 30.5227 225.881 30.3509 225.958 30.1463L227.164 30.3636C227.067 30.7187 226.894 31.0298 226.644 31.2969C226.397 31.5611 226.086 31.767 225.711 31.9148C225.338 32.0597 224.914 32.1321 224.436 32.1321Z" fill="#707070"/>
<path d="M26.8466 43.1136V47H25.5725V38.2727H26.8296V41.5199H26.9105C27.0639 41.1676 27.2983 40.8878 27.6137 40.6804C27.929 40.473 28.3409 40.3693 28.8494 40.3693C29.2983 40.3693 29.6904 40.4616 30.0256 40.6463C30.3637 40.831 30.625 41.1065 30.8097 41.473C30.9972 41.8366 31.0909 42.2912 31.0909 42.8366V47H29.8168V42.9901C29.8168 42.5099 29.6932 42.1378 29.446 41.8736C29.1989 41.6065 28.8551 41.473 28.4148 41.473C28.1137 41.473 27.8438 41.5369 27.6051 41.6648C27.3693 41.7926 27.1833 41.9801 27.0469 42.2273C26.9134 42.4716 26.8466 42.767 26.8466 43.1136Z" fill="#707070"/>
<path d="M34.696 47.1449C34.2813 47.1449 33.9063 47.0682 33.571 46.9148C33.2358 46.7585 32.9702 46.5327 32.7742 46.2372C32.581 45.9418 32.4844 45.5795 32.4844 45.1506C32.4844 44.7813 32.5554 44.4773 32.6975 44.2386C32.8395 44 33.0313 43.8111 33.2727 43.6719C33.5142 43.5327 33.7841 43.4276 34.0824 43.3565C34.3807 43.2855 34.6847 43.2315 34.9943 43.1946C35.3864 43.1491 35.7046 43.1122 35.9489 43.0838C36.1932 43.0526 36.3708 43.0028 36.4816 42.9347C36.5923 42.8665 36.6477 42.7557 36.6477 42.6023V42.5724C36.6477 42.2003 36.5426 41.9119 36.3324 41.7074C36.125 41.5028 35.8154 41.4006 35.4034 41.4006C34.9744 41.4006 34.6364 41.4957 34.3892 41.6861C34.1449 41.8736 33.9759 42.0824 33.8821 42.3125L32.6847 42.0398C32.8267 41.642 33.0341 41.321 33.3068 41.0767C33.5824 40.8295 33.8992 40.6506 34.2571 40.5398C34.6151 40.4261 34.9915 40.3693 35.3864 40.3693C35.6477 40.3693 35.9247 40.4006 36.2173 40.4631C36.5128 40.5227 36.7884 40.6335 37.0441 40.7955C37.3026 40.9574 37.5142 41.1889 37.679 41.4901C37.8438 41.7884 37.9262 42.1761 37.9262 42.6534V47H36.6818V46.1051H36.6307C36.5483 46.2699 36.4247 46.4318 36.26 46.5909C36.0952 46.75 35.8835 46.8821 35.625 46.9872C35.3665 47.0923 35.0568 47.1449 34.696 47.1449ZM34.973 46.1222C35.3253 46.1222 35.6264 46.0526 35.8764 45.9134C36.1293 45.7741 36.321 45.5923 36.4517 45.3679C36.5852 45.1406 36.652 44.8977 36.652 44.6392V43.7955C36.6066 43.8409 36.5185 43.8835 36.3878 43.9233C36.26 43.9602 36.1137 43.9929 35.9489 44.0213C35.7841 44.0469 35.6236 44.071 35.4673 44.0938C35.3111 44.1136 35.1804 44.1307 35.0753 44.1449C34.8281 44.1761 34.6023 44.2287 34.3977 44.3026C34.196 44.3764 34.0341 44.483 33.9119 44.6222C33.7926 44.7585 33.733 44.9403 33.733 45.1676C33.733 45.483 33.8495 45.7216 34.0824 45.8835C34.3154 46.0426 34.6122 46.1222 34.973 46.1222Z" fill="#707070"/>
<path d="M44.9883 40.4545L42.6147 47H41.2511L38.8732 40.4545H40.2411L41.8988 45.4915H41.967L43.6204 40.4545H44.9883Z" fill="#707070"/>
<path d="M48.7841 47.1321C48.1392 47.1321 47.5838 46.9943 47.1179 46.7188C46.6548 46.4403 46.2969 46.0497 46.0441 45.5469C45.7941 45.0412 45.6691 44.4489 45.6691 43.7699C45.6691 43.0994 45.7941 42.5085 46.0441 41.9972C46.2969 41.4858 46.6492 41.0866 47.1009 40.7997C47.5554 40.5128 48.0867 40.3693 48.6946 40.3693C49.0639 40.3693 49.4219 40.4304 49.7685 40.5526C50.1151 40.6747 50.4262 40.8665 50.7017 41.1278C50.9773 41.3892 51.1946 41.7287 51.3537 42.1463C51.5128 42.5611 51.5923 43.0653 51.5923 43.6591V44.1108H46.3892V43.1562H50.3438C50.3438 42.821 50.2756 42.5241 50.1392 42.2656C50.0029 42.0043 49.8111 41.7983 49.5639 41.6477C49.3196 41.4972 49.0327 41.4219 48.7031 41.4219C48.3452 41.4219 48.0327 41.5099 47.7656 41.6861C47.5014 41.8594 47.2969 42.0866 47.152 42.3679C47.01 42.6463 46.9389 42.9489 46.9389 43.2756V44.0213C46.9389 44.4588 47.0156 44.831 47.1691 45.1378C47.3253 45.4446 47.5426 45.679 47.821 45.8409C48.0995 46 48.4247 46.0795 48.7969 46.0795C49.0384 46.0795 49.2585 46.0455 49.4574 45.9773C49.6563 45.9062 49.8281 45.8011 49.973 45.6619C50.1179 45.5227 50.2287 45.3509 50.3054 45.1463L51.5114 45.3636C51.4148 45.7187 51.2415 46.0298 50.9915 46.2969C50.7443 46.5611 50.4333 46.767 50.0583 46.9148C49.6861 47.0597 49.2614 47.1321 48.7841 47.1321Z" fill="#707070"/>
<path d="M61.0867 42.0526L59.9318 42.2571C59.8835 42.1094 59.8068 41.9688 59.7017 41.8352C59.5994 41.7017 59.4602 41.5923 59.2841 41.5071C59.108 41.4219 58.8878 41.3793 58.6236 41.3793C58.2628 41.3793 57.9617 41.4602 57.7202 41.6222C57.4787 41.7812 57.358 41.9872 57.358 42.2401C57.358 42.4588 57.4389 42.6349 57.6009 42.7685C57.7628 42.902 58.0242 43.0114 58.385 43.0966L59.4247 43.3352C60.027 43.4744 60.4759 43.6889 60.7713 43.9787C61.0668 44.2685 61.2145 44.6449 61.2145 45.108C61.2145 45.5 61.1009 45.8494 60.8736 46.1562C60.6492 46.4602 60.3352 46.6989 59.9318 46.8722C59.5313 47.0455 59.0668 47.1321 58.5384 47.1321C57.8054 47.1321 57.2074 46.9759 56.7443 46.6634C56.2813 46.348 55.9972 45.9006 55.8921 45.321L57.1236 45.1335C57.2003 45.4545 57.358 45.6974 57.5966 45.8622C57.8352 46.0241 58.1463 46.1051 58.5298 46.1051C58.9475 46.1051 59.2813 46.0185 59.5313 45.8452C59.7813 45.669 59.9063 45.4545 59.9063 45.2017C59.9063 44.9972 59.8296 44.8253 59.6762 44.6861C59.5256 44.5469 59.2941 44.4418 58.9816 44.3707L57.8736 44.1278C57.2628 43.9886 56.8111 43.767 56.5185 43.4631C56.2287 43.1591 56.0838 42.7741 56.0838 42.3082C56.0838 41.9219 56.1918 41.5838 56.4077 41.294C56.6236 41.0043 56.9219 40.7784 57.3026 40.6165C57.6833 40.4517 58.1193 40.3693 58.6108 40.3693C59.3182 40.3693 59.875 40.5227 60.2813 40.8295C60.6875 41.1335 60.956 41.5412 61.0867 42.0526Z" fill="#707070"/>
<path d="M65.3725 47.1321C64.7589 47.1321 64.2234 46.9915 63.766 46.7102C63.3086 46.429 62.9535 46.0355 62.7007 45.5298C62.4478 45.0241 62.3214 44.4332 62.3214 43.7571C62.3214 43.0781 62.4478 42.4844 62.7007 41.9759C62.9535 41.4673 63.3086 41.0724 63.766 40.7912C64.2234 40.5099 64.7589 40.3693 65.3725 40.3693C65.9862 40.3693 66.5217 40.5099 66.9791 40.7912C67.4365 41.0724 67.7916 41.4673 68.0444 41.9759C68.2973 42.4844 68.4237 43.0781 68.4237 43.7571C68.4237 44.4332 68.2973 45.0241 68.0444 45.5298C67.7916 46.0355 67.4365 46.429 66.9791 46.7102C66.5217 46.9915 65.9862 47.1321 65.3725 47.1321ZM65.3768 46.0625C65.7745 46.0625 66.1041 45.9574 66.3654 45.7472C66.6268 45.5369 66.82 45.2571 66.945 44.9077C67.0728 44.5582 67.1367 44.1733 67.1367 43.7528C67.1367 43.3352 67.0728 42.9517 66.945 42.6023C66.82 42.25 66.6268 41.9673 66.3654 41.7543C66.1041 41.5412 65.7745 41.4347 65.3768 41.4347C64.9762 41.4347 64.6438 41.5412 64.3796 41.7543C64.1183 41.9673 63.9237 42.25 63.7958 42.6023C63.6708 42.9517 63.6083 43.3352 63.6083 43.7528C63.6083 44.1733 63.6708 44.5582 63.7958 44.9077C63.9237 45.2571 64.1183 45.5369 64.3796 45.7472C64.6438 45.9574 64.9762 46.0625 65.3768 46.0625Z" fill="#707070"/>
<path d="M73.0217 47V40.4545H74.2447V41.5199H74.3257C74.462 41.1591 74.685 40.8778 74.9947 40.6761C75.3043 40.4716 75.6751 40.3693 76.1069 40.3693C76.5444 40.3693 76.9109 40.4716 77.2063 40.6761C77.5046 40.8807 77.7248 41.1619 77.8669 41.5199H77.935C78.0913 41.1705 78.3399 40.892 78.6808 40.6847C79.0217 40.4744 79.4279 40.3693 79.8995 40.3693C80.4933 40.3693 80.9776 40.5554 81.3526 40.9276C81.7305 41.2997 81.9194 41.8608 81.9194 42.6108V47H80.6453V42.7301C80.6453 42.2869 80.5245 41.9659 80.283 41.767C80.0416 41.5682 79.7532 41.4688 79.418 41.4688C79.0032 41.4688 78.6808 41.5966 78.4507 41.8523C78.2205 42.1051 78.1055 42.4304 78.1055 42.8281V47H76.8356V42.6491C76.8356 42.294 76.7248 42.0085 76.5032 41.7926C76.2816 41.5767 75.9933 41.4688 75.6382 41.4688C75.3967 41.4688 75.1737 41.5327 74.9691 41.6605C74.7674 41.7855 74.6041 41.9602 74.4791 42.1847C74.3569 42.4091 74.2958 42.669 74.2958 42.9645V47H73.0217Z" fill="#707070"/>
<path d="M85.532 47.1449C85.1172 47.1449 84.7422 47.0682 84.407 46.9148C84.0717 46.7585 83.8061 46.5327 83.6101 46.2372C83.4169 45.9418 83.3203 45.5795 83.3203 45.1506C83.3203 44.7813 83.3914 44.4773 83.5334 44.2386C83.6754 44 83.8672 43.8111 84.1087 43.6719C84.3502 43.5327 84.62 43.4276 84.9183 43.3565C85.2166 43.2855 85.5206 43.2315 85.8303 43.1946C86.2223 43.1491 86.5405 43.1122 86.7848 43.0838C87.0291 43.0526 87.2067 43.0028 87.3175 42.9347C87.4283 42.8665 87.4837 42.7557 87.4837 42.6023V42.5724C87.4837 42.2003 87.3786 41.9119 87.1683 41.7074C86.961 41.5028 86.6513 41.4006 86.2394 41.4006C85.8104 41.4006 85.4723 41.4957 85.2252 41.6861C84.9808 41.8736 84.8118 42.0824 84.7181 42.3125L83.5206 42.0398C83.6627 41.642 83.87 41.321 84.1428 41.0767C84.4183 40.8295 84.7351 40.6506 85.0931 40.5398C85.451 40.4261 85.8274 40.3693 86.2223 40.3693C86.4837 40.3693 86.7607 40.4006 87.0533 40.4631C87.3487 40.5227 87.6243 40.6335 87.88 40.7955C88.1385 40.9574 88.3502 41.1889 88.5149 41.4901C88.6797 41.7884 88.7621 42.1761 88.7621 42.6534V47H87.5178V46.1051H87.4666C87.3843 46.2699 87.2607 46.4318 87.0959 46.5909C86.9311 46.75 86.7195 46.8821 86.461 46.9872C86.2024 47.0923 85.8928 47.1449 85.532 47.1449ZM85.809 46.1222C86.1612 46.1222 86.4624 46.0526 86.7124 45.9134C86.9652 45.7741 87.157 45.5923 87.2877 45.3679C87.4212 45.1406 87.4879 44.8977 87.4879 44.6392V43.7955C87.4425 43.8409 87.3544 43.8835 87.2237 43.9233C87.0959 43.9602 86.9496 43.9929 86.7848 44.0213C86.62 44.0469 86.4595 44.071 86.3033 44.0938C86.147 44.1136 86.0164 44.1307 85.9112 44.1449C85.6641 44.1761 85.4382 44.2287 85.2337 44.3026C85.032 44.3764 84.87 44.483 84.7479 44.6222C84.6286 44.7585 84.5689 44.9403 84.5689 45.1676C84.5689 45.483 84.6854 45.7216 84.9183 45.8835C85.1513 46.0426 85.4482 46.1222 85.809 46.1222Z" fill="#707070"/>
<path d="M91.0302 49.4545C90.8399 49.4545 90.6666 49.4389 90.5103 49.4077C90.3541 49.3793 90.2376 49.348 90.1609 49.3139L90.4677 48.2699C90.7007 48.3324 90.908 48.3594 91.0899 48.3509C91.2717 48.3423 91.4322 48.2741 91.5714 48.1463C91.7134 48.0185 91.8384 47.8097 91.9464 47.5199L92.1041 47.0852L89.7092 40.4545H91.0728L92.7305 45.5341H92.7987L94.4563 40.4545H95.8242L93.1268 47.8736C93.0018 48.2145 92.8427 48.5028 92.6495 48.7386C92.4563 48.9773 92.2262 49.1563 91.9592 49.2756C91.6921 49.3949 91.3825 49.4545 91.0302 49.4545Z" fill="#707070"/>
<path d="M103.253 40.4545V41.4773H99.6776V40.4545H103.253ZM100.636 38.8864H101.911V45.0781C101.911 45.3253 101.947 45.5114 102.021 45.6364C102.095 45.7585 102.19 45.8423 102.307 45.8878C102.426 45.9304 102.555 45.9517 102.695 45.9517C102.797 45.9517 102.886 45.9446 102.963 45.9304C103.04 45.9162 103.099 45.9048 103.142 45.8963L103.372 46.9489C103.298 46.9773 103.193 47.0057 103.057 47.0341C102.92 47.0653 102.75 47.0824 102.545 47.0852C102.21 47.0909 101.898 47.0312 101.608 46.9062C101.318 46.7812 101.084 46.5881 100.905 46.3267C100.726 46.0653 100.636 45.7372 100.636 45.3423V38.8864Z" fill="#707070"/>
<path d="M106.077 43.1136V47H104.803V38.2727H106.06V41.5199H106.141C106.294 41.1676 106.529 40.8878 106.844 40.6804C107.159 40.473 107.571 40.3693 108.08 40.3693C108.529 40.3693 108.921 40.4616 109.256 40.6463C109.594 40.831 109.855 41.1065 110.04 41.473C110.228 41.8366 110.321 42.2912 110.321 42.8366V47H109.047V42.9901C109.047 42.5099 108.924 42.1378 108.677 41.8736C108.429 41.6065 108.086 41.473 107.645 41.473C107.344 41.473 107.074 41.5369 106.836 41.6648C106.6 41.7926 106.414 41.9801 106.277 42.2273C106.144 42.4716 106.077 42.767 106.077 43.1136Z" fill="#707070"/>
<path d="M112.022 47V40.4545H113.296V47H112.022ZM112.665 39.4446C112.444 39.4446 112.253 39.3707 112.094 39.223C111.938 39.0724 111.86 38.8935 111.86 38.6861C111.86 38.4759 111.938 38.2969 112.094 38.1491C112.253 37.9986 112.444 37.9233 112.665 37.9233C112.887 37.9233 113.076 37.9986 113.232 38.1491C113.391 38.2969 113.471 38.4759 113.471 38.6861C113.471 38.8935 113.391 39.0724 113.232 39.223C113.076 39.3707 112.887 39.4446 112.665 39.4446Z" fill="#707070"/>
<path d="M116.284 43.1136V47H115.01V40.4545H116.233V41.5199H116.314C116.465 41.1733 116.7 40.8949 117.021 40.6847C117.345 40.4744 117.753 40.3693 118.244 40.3693C118.69 40.3693 119.081 40.4631 119.416 40.6506C119.751 40.8352 120.011 41.1108 120.196 41.4773C120.381 41.8437 120.473 42.2969 120.473 42.8366V47H119.199V42.9901C119.199 42.5156 119.075 42.1449 118.828 41.8778C118.581 41.608 118.241 41.473 117.81 41.473C117.514 41.473 117.251 41.5369 117.021 41.6648C116.794 41.7926 116.614 41.9801 116.48 42.2273C116.349 42.4716 116.284 42.767 116.284 43.1136Z" fill="#707070"/>
<path d="M124.926 49.5909C124.406 49.5909 123.959 49.5227 123.584 49.3864C123.212 49.25 122.908 49.0696 122.672 48.8452C122.436 48.6207 122.26 48.375 122.143 48.108L123.239 47.6562C123.315 47.7812 123.418 47.9134 123.545 48.0526C123.676 48.1946 123.852 48.3153 124.074 48.4148C124.298 48.5142 124.587 48.5639 124.939 48.5639C125.422 48.5639 125.821 48.446 126.136 48.2102C126.452 47.9773 126.609 47.6051 126.609 47.0938V45.8068H126.528C126.452 45.946 126.341 46.1009 126.196 46.2713C126.054 46.4418 125.858 46.5895 125.608 46.7145C125.358 46.8395 125.033 46.902 124.632 46.902C124.115 46.902 123.649 46.7812 123.234 46.5398C122.822 46.2955 122.496 45.9361 122.254 45.4616C122.016 44.9844 121.896 44.3977 121.896 43.7017C121.896 43.0057 122.014 42.4091 122.25 41.9119C122.489 41.4148 122.815 41.0341 123.23 40.7699C123.645 40.5028 124.115 40.3693 124.641 40.3693C125.047 40.3693 125.375 40.4375 125.625 40.5739C125.875 40.7074 126.07 40.8636 126.209 41.0426C126.351 41.2216 126.46 41.3793 126.537 41.5156H126.631V40.4545H127.879V47.1449C127.879 47.7074 127.749 48.169 127.487 48.5298C127.226 48.8906 126.872 49.1577 126.426 49.331C125.983 49.5043 125.483 49.5909 124.926 49.5909ZM124.913 45.8452C125.28 45.8452 125.59 45.7599 125.842 45.5895C126.098 45.4162 126.291 45.169 126.422 44.848C126.555 44.5241 126.622 44.1364 126.622 43.6847C126.622 43.2443 126.557 42.8565 126.426 42.5213C126.295 42.1861 126.104 41.9247 125.851 41.7372C125.598 41.5469 125.286 41.4517 124.913 41.4517C124.53 41.4517 124.21 41.5511 123.955 41.75C123.699 41.946 123.506 42.2131 123.375 42.5511C123.247 42.8892 123.183 43.267 123.183 43.6847C123.183 44.1136 123.249 44.4901 123.379 44.8139C123.51 45.1378 123.703 45.3906 123.959 45.5724C124.217 45.7543 124.536 45.8452 124.913 45.8452Z" fill="#707070"/>
<path d="M134.493 42.0526L133.338 42.2571C133.29 42.1094 133.213 41.9688 133.108 41.8352C133.006 41.7017 132.866 41.5923 132.69 41.5071C132.514 41.4219 132.294 41.3793 132.03 41.3793C131.669 41.3793 131.368 41.4602 131.126 41.6222C130.885 41.7812 130.764 41.9872 130.764 42.2401C130.764 42.4588 130.845 42.6349 131.007 42.7685C131.169 42.902 131.43 43.0114 131.791 43.0966L132.831 43.3352C133.433 43.4744 133.882 43.6889 134.178 43.9787C134.473 44.2685 134.621 44.6449 134.621 45.108C134.621 45.5 134.507 45.8494 134.28 46.1562C134.055 46.4602 133.741 46.6989 133.338 46.8722C132.938 47.0455 132.473 47.1321 131.945 47.1321C131.212 47.1321 130.614 46.9759 130.151 46.6634C129.688 46.348 129.403 45.9006 129.298 45.321L130.53 45.1335C130.607 45.4545 130.764 45.6974 131.003 45.8622C131.241 46.0241 131.553 46.1051 131.936 46.1051C132.354 46.1051 132.688 46.0185 132.938 45.8452C133.188 45.669 133.313 45.4545 133.313 45.2017C133.313 44.9972 133.236 44.8253 133.082 44.6861C132.932 44.5469 132.7 44.4418 132.388 44.3707L131.28 44.1278C130.669 43.9886 130.217 43.767 129.925 43.4631C129.635 43.1591 129.49 42.7741 129.49 42.3082C129.49 41.9219 129.598 41.5838 129.814 41.294C130.03 41.0043 130.328 40.7784 130.709 40.6165C131.09 40.4517 131.526 40.3693 132.017 40.3693C132.724 40.3693 133.281 40.5227 133.688 40.8295C134.094 41.1335 134.362 41.5412 134.493 42.0526Z" fill="#707070"/>
<path d="M139.197 47V40.4545H140.472V47H139.197ZM139.841 39.4446C139.619 39.4446 139.429 39.3707 139.27 39.223C139.114 39.0724 139.036 38.8935 139.036 38.6861C139.036 38.4759 139.114 38.2969 139.27 38.1491C139.429 37.9986 139.619 37.9233 139.841 37.9233C140.063 37.9233 140.251 37.9986 140.408 38.1491C140.567 38.2969 140.646 38.4759 140.646 38.6861C140.646 38.8935 140.567 39.0724 140.408 39.223C140.251 39.3707 140.063 39.4446 139.841 39.4446Z" fill="#707070"/>
<path d="M143.46 43.1136V47H142.186V40.4545H143.409V41.5199H143.49C143.64 41.1733 143.876 40.8949 144.197 40.6847C144.521 40.4744 144.929 40.3693 145.42 40.3693C145.866 40.3693 146.257 40.4631 146.592 40.6506C146.927 40.8352 147.187 41.1108 147.372 41.4773C147.556 41.8437 147.649 42.2969 147.649 42.8366V47H146.375V42.9901C146.375 42.5156 146.251 42.1449 146.004 41.8778C145.757 41.608 145.417 41.473 144.985 41.473C144.69 41.473 144.427 41.5369 144.197 41.6648C143.97 41.7926 143.789 41.9801 143.656 42.2273C143.525 42.4716 143.46 42.767 143.46 43.1136Z" fill="#707070"/>
<path d="M155.29 47.1321C154.657 47.1321 154.112 46.9886 153.654 46.7017C153.2 46.4119 152.85 46.0128 152.606 45.5043C152.362 44.9957 152.239 44.4134 152.239 43.7571C152.239 43.0923 152.364 42.5057 152.614 41.9972C152.864 41.4858 153.217 41.0866 153.671 40.7997C154.126 40.5128 154.661 40.3693 155.278 40.3693C155.775 40.3693 156.218 40.4616 156.607 40.6463C156.996 40.8281 157.31 41.0838 157.549 41.4134C157.791 41.7429 157.934 42.1278 157.979 42.5682H156.739C156.671 42.2614 156.515 41.9972 156.271 41.7756C156.029 41.554 155.705 41.4432 155.299 41.4432C154.944 41.4432 154.633 41.5369 154.366 41.7244C154.102 41.9091 153.896 42.1733 153.748 42.517C153.6 42.858 153.526 43.2614 153.526 43.7273C153.526 44.2045 153.599 44.6165 153.744 44.9631C153.889 45.3097 154.093 45.5781 154.357 45.7685C154.624 45.9588 154.938 46.054 155.299 46.054C155.541 46.054 155.759 46.0099 155.955 45.9219C156.154 45.831 156.32 45.7017 156.454 45.5341C156.59 45.3665 156.685 45.1648 156.739 44.929H157.979C157.934 45.3523 157.796 45.7301 157.566 46.0625C157.336 46.3949 157.028 46.6563 156.641 46.8466C156.258 47.0369 155.808 47.1321 155.29 47.1321Z" fill="#707070"/>
<path d="M162.099 47.1321C161.485 47.1321 160.95 46.9915 160.493 46.7102C160.035 46.429 159.68 46.0355 159.427 45.5298C159.174 45.0241 159.048 44.4332 159.048 43.7571C159.048 43.0781 159.174 42.4844 159.427 41.9759C159.68 41.4673 160.035 41.0724 160.493 40.7912C160.95 40.5099 161.485 40.3693 162.099 40.3693C162.713 40.3693 163.248 40.5099 163.706 40.7912C164.163 41.0724 164.518 41.4673 164.771 41.9759C165.024 42.4844 165.15 43.0781 165.15 43.7571C165.15 44.4332 165.024 45.0241 164.771 45.5298C164.518 46.0355 164.163 46.429 163.706 46.7102C163.248 46.9915 162.713 47.1321 162.099 47.1321ZM162.103 46.0625C162.501 46.0625 162.831 45.9574 163.092 45.7472C163.353 45.5369 163.547 45.2571 163.672 44.9077C163.799 44.5582 163.863 44.1733 163.863 43.7528C163.863 43.3352 163.799 42.9517 163.672 42.6023C163.547 42.25 163.353 41.9673 163.092 41.7543C162.831 41.5412 162.501 41.4347 162.103 41.4347C161.703 41.4347 161.37 41.5412 161.106 41.7543C160.845 41.9673 160.65 42.25 160.522 42.6023C160.397 42.9517 160.335 43.3352 160.335 43.7528C160.335 44.1733 160.397 44.5582 160.522 44.9077C160.65 45.2571 160.845 45.5369 161.106 45.7472C161.37 45.9574 161.703 46.0625 162.103 46.0625Z" fill="#707070"/>
<path d="M166.572 47V40.4545H167.795V41.5199H167.876C168.013 41.1591 168.236 40.8778 168.545 40.6761C168.855 40.4716 169.226 40.3693 169.658 40.3693C170.095 40.3693 170.462 40.4716 170.757 40.6761C171.055 40.8807 171.276 41.1619 171.418 41.5199H171.486C171.642 41.1705 171.891 40.892 172.232 40.6847C172.572 40.4744 172.979 40.3693 173.45 40.3693C174.044 40.3693 174.528 40.5554 174.903 40.9276C175.281 41.2997 175.47 41.8608 175.47 42.6108V47H174.196V42.7301C174.196 42.2869 174.075 41.9659 173.834 41.767C173.592 41.5682 173.304 41.4688 172.969 41.4688C172.554 41.4688 172.232 41.5966 172.001 41.8523C171.771 42.1051 171.656 42.4304 171.656 42.8281V47H170.386V42.6491C170.386 42.294 170.276 42.0085 170.054 41.7926C169.832 41.5767 169.544 41.4688 169.189 41.4688C168.947 41.4688 168.724 41.5327 168.52 41.6605C168.318 41.7855 168.155 41.9602 168.03 42.1847C167.908 42.4091 167.847 42.669 167.847 42.9645V47H166.572Z" fill="#707070"/>
<path d="M177.178 47V40.4545H178.401V41.5199H178.482C178.618 41.1591 178.841 40.8778 179.151 40.6761C179.461 40.4716 179.831 40.3693 180.263 40.3693C180.701 40.3693 181.067 40.4716 181.363 40.6761C181.661 40.8807 181.881 41.1619 182.023 41.5199H182.091C182.248 41.1705 182.496 40.892 182.837 40.6847C183.178 40.4744 183.584 40.3693 184.056 40.3693C184.65 40.3693 185.134 40.5554 185.509 40.9276C185.887 41.2997 186.076 41.8608 186.076 42.6108V47H184.802V42.7301C184.802 42.2869 184.681 41.9659 184.439 41.767C184.198 41.5682 183.909 41.4688 183.574 41.4688C183.159 41.4688 182.837 41.5966 182.607 41.8523C182.377 42.1051 182.262 42.4304 182.262 42.8281V47H180.992V42.6491C180.992 42.294 180.881 42.0085 180.659 41.7926C180.438 41.5767 180.15 41.4688 179.794 41.4688C179.553 41.4688 179.33 41.5327 179.125 41.6605C178.924 41.7855 178.76 41.9602 178.635 42.1847C178.513 42.4091 178.452 42.669 178.452 42.9645V47H177.178Z" fill="#707070"/>
<path d="M190.54 47.1321C189.927 47.1321 189.391 46.9915 188.934 46.7102C188.477 46.429 188.121 46.0355 187.869 45.5298C187.616 45.0241 187.489 44.4332 187.489 43.7571C187.489 43.0781 187.616 42.4844 187.869 41.9759C188.121 41.4673 188.477 41.0724 188.934 40.7912C189.391 40.5099 189.927 40.3693 190.54 40.3693C191.154 40.3693 191.69 40.5099 192.147 40.7912C192.604 41.0724 192.96 41.4673 193.212 41.9759C193.465 42.4844 193.592 43.0781 193.592 43.7571C193.592 44.4332 193.465 45.0241 193.212 45.5298C192.96 46.0355 192.604 46.429 192.147 46.7102C191.69 46.9915 191.154 47.1321 190.54 47.1321ZM190.545 46.0625C190.942 46.0625 191.272 45.9574 191.533 45.7472C191.795 45.5369 191.988 45.2571 192.113 44.9077C192.241 44.5582 192.305 44.1733 192.305 43.7528C192.305 43.3352 192.241 42.9517 192.113 42.6023C191.988 42.25 191.795 41.9673 191.533 41.7543C191.272 41.5412 190.942 41.4347 190.545 41.4347C190.144 41.4347 189.812 41.5412 189.548 41.7543C189.286 41.9673 189.092 42.25 188.964 42.6023C188.839 42.9517 188.776 43.3352 188.776 43.7528C188.776 44.1733 188.839 44.5582 188.964 44.9077C189.092 45.2571 189.286 45.5369 189.548 45.7472C189.812 45.9574 190.144 46.0625 190.545 46.0625Z" fill="#707070"/>
<path d="M196.288 43.1136V47H195.014V40.4545H196.237V41.5199H196.318C196.468 41.1733 196.704 40.8949 197.025 40.6847C197.349 40.4744 197.757 40.3693 198.248 40.3693C198.694 40.3693 199.085 40.4631 199.42 40.6506C199.755 40.8352 200.015 41.1108 200.2 41.4773C200.385 41.8437 200.477 42.2969 200.477 42.8366V47H199.203V42.9901C199.203 42.5156 199.079 42.1449 198.832 41.8778C198.585 41.608 198.245 41.473 197.814 41.473C197.518 41.473 197.255 41.5369 197.025 41.6648C196.798 41.7926 196.618 41.9801 196.484 42.2273C196.353 42.4716 196.288 42.767 196.288 43.1136Z" fill="#707070"/>
<path d="M207.266 47.1449C206.852 47.1449 206.477 47.0682 206.141 46.9148C205.806 46.7585 205.541 46.5327 205.344 46.2372C205.151 45.9418 205.055 45.5795 205.055 45.1506C205.055 44.7813 205.126 44.4773 205.268 44.2386C205.41 44 205.602 43.8111 205.843 43.6719C206.085 43.5327 206.354 43.4276 206.653 43.3565C206.951 43.2855 207.255 43.2315 207.565 43.1946C207.957 43.1491 208.275 43.1122 208.519 43.0838C208.764 43.0526 208.941 43.0028 209.052 42.9347C209.163 42.8665 209.218 42.7557 209.218 42.6023V42.5724C209.218 42.2003 209.113 41.9119 208.903 41.7074C208.695 41.5028 208.386 41.4006 207.974 41.4006C207.545 41.4006 207.207 41.4957 206.96 41.6861C206.715 41.8736 206.546 42.0824 206.452 42.3125L205.255 42.0398C205.397 41.642 205.604 41.321 205.877 41.0767C206.153 40.8295 206.469 40.6506 206.827 40.5398C207.185 40.4261 207.562 40.3693 207.957 40.3693C208.218 40.3693 208.495 40.4006 208.788 40.4631C209.083 40.5227 209.359 40.6335 209.614 40.7955C209.873 40.9574 210.085 41.1889 210.249 41.4901C210.414 41.7884 210.496 42.1761 210.496 42.6534V47H209.252V46.1051H209.201C209.119 46.2699 208.995 46.4318 208.83 46.5909C208.666 46.75 208.454 46.8821 208.195 46.9872C207.937 47.0923 207.627 47.1449 207.266 47.1449ZM207.543 46.1222C207.896 46.1222 208.197 46.0526 208.447 45.9134C208.7 45.7741 208.891 45.5923 209.022 45.3679C209.156 45.1406 209.222 44.8977 209.222 44.6392V43.7955C209.177 43.8409 209.089 43.8835 208.958 43.9233C208.83 43.9602 208.684 43.9929 208.519 44.0213C208.354 44.0469 208.194 44.071 208.038 44.0938C207.881 44.1136 207.751 44.1307 207.646 44.1449C207.398 44.1761 207.173 44.2287 206.968 44.3026C206.766 44.3764 206.604 44.483 206.482 44.6222C206.363 44.7585 206.303 44.9403 206.303 45.1676C206.303 45.483 206.42 45.7216 206.653 45.8835C206.886 46.0426 207.183 46.1222 207.543 46.1222Z" fill="#707070"/>
<path d="M213.468 43.1136V47H212.194V40.4545H213.417V41.5199H213.498C213.648 41.1733 213.884 40.8949 214.205 40.6847C214.529 40.4744 214.936 40.3693 215.428 40.3693C215.874 40.3693 216.265 40.4631 216.6 40.6506C216.935 40.8352 217.195 41.1108 217.38 41.4773C217.564 41.8437 217.657 42.2969 217.657 42.8366V47H216.382V42.9901C216.382 42.5156 216.259 42.1449 216.012 41.8778C215.765 41.608 215.425 41.473 214.993 41.473C214.698 41.473 214.435 41.5369 214.205 41.6648C213.978 41.7926 213.797 41.9801 213.664 42.2273C213.533 42.4716 213.468 42.767 213.468 43.1136Z" fill="#707070"/>
<path d="M221.816 47.1278C221.287 47.1278 220.816 46.9929 220.401 46.723C219.989 46.4503 219.665 46.0625 219.429 45.5597C219.196 45.054 219.08 44.4474 219.08 43.7401C219.08 43.0327 219.198 42.4276 219.434 41.9247C219.672 41.4219 219.999 41.0369 220.414 40.7699C220.828 40.5028 221.299 40.3693 221.824 40.3693C222.23 40.3693 222.557 40.4375 222.804 40.5739C223.054 40.7074 223.248 40.8636 223.384 41.0426C223.523 41.2216 223.631 41.3793 223.708 41.5156H223.784V38.2727H225.059V47H223.814V45.9815H223.708C223.631 46.1207 223.52 46.2798 223.375 46.4588C223.233 46.6378 223.037 46.794 222.787 46.9276C222.537 47.0611 222.213 47.1278 221.816 47.1278ZM222.097 46.0412C222.463 46.0412 222.773 45.9446 223.026 45.7514C223.282 45.5554 223.475 45.2841 223.605 44.9375C223.739 44.5909 223.806 44.1875 223.806 43.7273C223.806 43.2727 223.74 42.875 223.61 42.5341C223.479 42.1932 223.287 41.9276 223.034 41.7372C222.782 41.5469 222.469 41.4517 222.097 41.4517C221.713 41.4517 221.394 41.5511 221.138 41.75C220.882 41.9489 220.689 42.2202 220.559 42.5639C220.431 42.9077 220.367 43.2955 220.367 43.7273C220.367 44.1648 220.432 44.5582 220.563 44.9077C220.694 45.2571 220.887 45.5341 221.142 45.7386C221.401 45.9403 221.719 46.0412 222.097 46.0412Z" fill="#707070"/>
<path d="M82.3147 62V55.4545H83.5888V62H82.3147ZM82.9581 54.4446C82.7365 54.4446 82.5462 54.3707 82.3871 54.223C82.2308 54.0724 82.1527 53.8935 82.1527 53.6861C82.1527 53.4759 82.2308 53.2969 82.3871 53.1491C82.5462 52.9986 82.7365 52.9233 82.9581 52.9233C83.1797 52.9233 83.3686 52.9986 83.5249 53.1491C83.684 53.2969 83.7635 53.4759 83.7635 53.6861C83.7635 53.8935 83.684 54.0724 83.5249 54.223C83.3686 54.3707 83.1797 54.4446 82.9581 54.4446Z" fill="#707070"/>
<path d="M88.3583 55.4545V56.4773H84.783V55.4545H88.3583ZM85.7419 53.8864H87.016V60.0781C87.016 60.3253 87.0529 60.5114 87.1268 60.6364C87.2007 60.7585 87.2958 60.8423 87.4123 60.8878C87.5316 60.9304 87.6609 60.9517 87.8001 60.9517C87.9024 60.9517 87.9919 60.9446 88.0686 60.9304C88.1453 60.9162 88.2049 60.9048 88.2475 60.8963L88.4776 61.9489C88.4038 61.9773 88.2987 62.0057 88.1623 62.0341C88.0259 62.0653 87.8555 62.0824 87.6509 62.0852C87.3157 62.0909 87.0032 62.0312 86.7134 61.9062C86.4237 61.7812 86.1893 61.5881 86.0103 61.3267C85.8313 61.0653 85.7419 60.7372 85.7419 60.3423V53.8864Z" fill="#707070"/>
<path d="M92.9436 62V55.4545H94.2177V62H92.9436ZM93.587 54.4446C93.3654 54.4446 93.1751 54.3707 93.016 54.223C92.8597 54.0724 92.7816 53.8935 92.7816 53.6861C92.7816 53.4759 92.8597 53.2969 93.016 53.1491C93.1751 52.9986 93.3654 52.9233 93.587 52.9233C93.8086 52.9233 93.9975 52.9986 94.1538 53.1491C94.3129 53.2969 94.3924 53.4759 94.3924 53.6861C94.3924 53.8935 94.3129 54.0724 94.1538 54.223C93.9975 54.3707 93.8086 54.4446 93.587 54.4446Z" fill="#707070"/>
<path d="M100.837 57.0526L99.6818 57.2571C99.6335 57.1094 99.5568 56.9688 99.4517 56.8352C99.3494 56.7017 99.2102 56.5923 99.0341 56.5071C98.858 56.4219 98.6378 56.3793 98.3736 56.3793C98.0128 56.3793 97.7117 56.4602 97.4702 56.6222C97.2287 56.7812 97.108 56.9872 97.108 57.2401C97.108 57.4588 97.1889 57.6349 97.3509 57.7685C97.5128 57.902 97.7742 58.0114 98.135 58.0966L99.1747 58.3352C99.777 58.4744 100.226 58.6889 100.521 58.9787C100.817 59.2685 100.965 59.6449 100.965 60.108C100.965 60.5 100.851 60.8494 100.624 61.1562C100.399 61.4602 100.085 61.6989 99.6818 61.8722C99.2813 62.0455 98.8168 62.1321 98.2884 62.1321C97.5554 62.1321 96.9574 61.9759 96.4943 61.6634C96.0313 61.348 95.7472 60.9006 95.6421 60.321L96.8736 60.1335C96.9503 60.4545 97.108 60.6974 97.3466 60.8622C97.5852 61.0241 97.8963 61.1051 98.2798 61.1051C98.6975 61.1051 99.0313 61.0185 99.2813 60.8452C99.5313 60.669 99.6563 60.4545 99.6563 60.2017C99.6563 59.9972 99.5796 59.8253 99.4262 59.6861C99.2756 59.5469 99.0441 59.4418 98.7316 59.3707L97.6236 59.1278C97.0128 58.9886 96.5611 58.767 96.2685 58.4631C95.9787 58.1591 95.8338 57.7741 95.8338 57.3082C95.8338 56.9219 95.9418 56.5838 96.1577 56.294C96.3736 56.0043 96.6719 55.7784 97.0526 55.6165C97.4333 55.4517 97.8693 55.3693 98.3608 55.3693C99.0682 55.3693 99.625 55.5227 100.031 55.8295C100.438 56.1335 100.706 56.5412 100.837 57.0526Z" fill="#707070"/>
<path d="M106.96 62L105.034 55.4545H106.351L107.634 60.2614H107.697L108.984 55.4545H110.301L111.58 60.2401H111.643L112.918 55.4545H114.234L112.313 62H111.013L109.683 57.2741H109.585L108.256 62H106.96Z" fill="#707070"/>
<path d="M118.001 62.1321C117.388 62.1321 116.852 61.9915 116.395 61.7102C115.938 61.429 115.582 61.0355 115.33 60.5298C115.077 60.0241 114.95 59.4332 114.95 58.7571C114.95 58.0781 115.077 57.4844 115.33 56.9759C115.582 56.4673 115.938 56.0724 116.395 55.7912C116.852 55.5099 117.388 55.3693 118.001 55.3693C118.615 55.3693 119.151 55.5099 119.608 55.7912C120.065 56.0724 120.42 56.4673 120.673 56.9759C120.926 57.4844 121.053 58.0781 121.053 58.7571C121.053 59.4332 120.926 60.0241 120.673 60.5298C120.42 61.0355 120.065 61.429 119.608 61.7102C119.151 61.9915 118.615 62.1321 118.001 62.1321ZM118.006 61.0625C118.403 61.0625 118.733 60.9574 118.994 60.7472C119.256 60.5369 119.449 60.2571 119.574 59.9077C119.702 59.5582 119.766 59.1733 119.766 58.7528C119.766 58.3352 119.702 57.9517 119.574 57.6023C119.449 57.25 119.256 56.9673 118.994 56.7543C118.733 56.5412 118.403 56.4347 118.006 56.4347C117.605 56.4347 117.273 56.5412 117.009 56.7543C116.747 56.9673 116.553 57.25 116.425 57.6023C116.3 57.9517 116.237 58.3352 116.237 58.7528C116.237 59.1733 116.3 59.5582 116.425 59.9077C116.553 60.2571 116.747 60.5369 117.009 60.7472C117.273 60.9574 117.605 61.0625 118.006 61.0625Z" fill="#707070"/>
<path d="M123.749 58.1136V62H122.475V55.4545H123.698V56.5199H123.779C123.929 56.1733 124.165 55.8949 124.486 55.6847C124.81 55.4744 125.218 55.3693 125.709 55.3693C126.155 55.3693 126.546 55.4631 126.881 55.6506C127.216 55.8352 127.476 56.1108 127.661 56.4773C127.846 56.8437 127.938 57.2969 127.938 57.8366V62H126.664V57.9901C126.664 57.5156 126.54 57.1449 126.293 56.8778C126.046 56.608 125.706 56.473 125.275 56.473C124.979 56.473 124.716 56.5369 124.486 56.6648C124.259 56.7926 124.078 56.9801 123.945 57.2273C123.814 57.4716 123.749 57.767 123.749 58.1136Z" fill="#707070"/>
<path d="M132.097 62.1278C131.569 62.1278 131.097 61.9929 130.682 61.723C130.27 61.4503 129.946 61.0625 129.711 60.5597C129.478 60.054 129.361 59.4474 129.361 58.7401C129.361 58.0327 129.479 57.4276 129.715 56.9247C129.953 56.4219 130.28 56.0369 130.695 55.7699C131.11 55.5028 131.58 55.3693 132.105 55.3693C132.512 55.3693 132.838 55.4375 133.086 55.5739C133.336 55.7074 133.529 55.8636 133.665 56.0426C133.804 56.2216 133.912 56.3793 133.989 56.5156H134.066V53.2727H135.34V62H134.096V60.9815H133.989C133.912 61.1207 133.802 61.2798 133.657 61.4588C133.515 61.6378 133.319 61.794 133.069 61.9276C132.819 62.0611 132.495 62.1278 132.097 62.1278ZM132.378 61.0412C132.745 61.0412 133.054 60.9446 133.307 60.7514C133.563 60.5554 133.756 60.2841 133.887 59.9375C134.02 59.5909 134.087 59.1875 134.087 58.7273C134.087 58.2727 134.022 57.875 133.891 57.5341C133.76 57.1932 133.569 56.9276 133.316 56.7372C133.063 56.5469 132.75 56.4517 132.378 56.4517C131.995 56.4517 131.675 56.5511 131.419 56.75C131.164 56.9489 130.971 57.2202 130.84 57.5639C130.712 57.9077 130.648 58.2955 130.648 58.7273C130.648 59.1648 130.713 59.5582 130.844 59.9077C130.975 60.2571 131.168 60.5341 131.424 60.7386C131.682 60.9403 132 61.0412 132.378 61.0412Z" fill="#707070"/>
<path d="M139.979 62.1321C139.335 62.1321 138.779 61.9943 138.313 61.7188C137.85 61.4403 137.492 61.0497 137.239 60.5469C136.989 60.0412 136.864 59.4489 136.864 58.7699C136.864 58.0994 136.989 57.5085 137.239 56.9972C137.492 56.4858 137.844 56.0866 138.296 55.7997C138.751 55.5128 139.282 55.3693 139.89 55.3693C140.259 55.3693 140.617 55.4304 140.964 55.5526C141.31 55.6747 141.621 55.8665 141.897 56.1278C142.173 56.3892 142.39 56.7287 142.549 57.1463C142.708 57.5611 142.788 58.0653 142.788 58.6591V59.1108H137.585V58.1562H141.539C141.539 57.821 141.471 57.5241 141.335 57.2656C141.198 57.0043 141.006 56.7983 140.759 56.6477C140.515 56.4972 140.228 56.4219 139.898 56.4219C139.54 56.4219 139.228 56.5099 138.961 56.6861C138.697 56.8594 138.492 57.0866 138.347 57.3679C138.205 57.6463 138.134 57.9489 138.134 58.2756V59.0213C138.134 59.4588 138.211 59.831 138.364 60.1378C138.521 60.4446 138.738 60.679 139.016 60.8409C139.295 61 139.62 61.0795 139.992 61.0795C140.234 61.0795 140.454 61.0455 140.653 60.9773C140.852 60.9062 141.023 60.8011 141.168 60.6619C141.313 60.5227 141.424 60.3509 141.501 60.1463L142.707 60.3636C142.61 60.7187 142.437 61.0298 142.187 61.2969C141.94 61.5611 141.629 61.767 141.254 61.9148C140.881 62.0597 140.457 62.1321 139.979 62.1321Z" fill="#707070"/>
<path d="M144.201 62V55.4545H145.433V56.4943H145.501C145.62 56.142 145.831 55.8651 146.132 55.6634C146.436 55.4588 146.779 55.3565 147.163 55.3565C147.243 55.3565 147.336 55.3594 147.444 55.3651C147.555 55.3707 147.642 55.3778 147.704 55.3864V56.6051C147.653 56.5909 147.562 56.5753 147.431 56.5582C147.301 56.5384 147.17 56.5284 147.039 56.5284C146.738 56.5284 146.47 56.5923 146.234 56.7202C146.001 56.8452 145.816 57.0199 145.68 57.2443C145.544 57.4659 145.476 57.7188 145.476 58.0028V62H144.201Z" fill="#707070"/>
<path d="M152.309 55.4545V56.4773H148.61V55.4545H152.309ZM149.624 62V54.696C149.624 54.2869 149.713 53.9474 149.892 53.6776C150.071 53.4048 150.309 53.2017 150.604 53.0682C150.9 52.9318 151.221 52.8636 151.567 52.8636C151.823 52.8636 152.042 52.8849 152.223 52.9276C152.405 52.9673 152.54 53.0043 152.628 53.0384L152.33 54.0696C152.27 54.0526 152.194 54.0327 152.1 54.0099C152.006 53.9844 151.892 53.9716 151.759 53.9716C151.449 53.9716 151.228 54.0483 151.094 54.2017C150.963 54.3551 150.898 54.5767 150.898 54.8665V62H149.624Z" fill="#707070"/>
<path d="M157.77 59.2855V55.4545H159.048V62H157.795V60.8665H157.727C157.576 61.2159 157.335 61.5071 157.003 61.7401C156.673 61.9702 156.262 62.0852 155.771 62.0852C155.351 62.0852 154.978 61.9929 154.654 61.8082C154.333 61.6207 154.081 61.3437 153.896 60.9773C153.714 60.6108 153.623 60.1577 153.623 59.6179V55.4545H154.897V59.4645C154.897 59.9105 155.021 60.2656 155.268 60.5298C155.515 60.794 155.836 60.9261 156.231 60.9261C156.47 60.9261 156.707 60.8665 156.943 60.7472C157.181 60.6278 157.379 60.4474 157.535 60.206C157.694 59.9645 157.772 59.6577 157.77 59.2855Z" fill="#707070"/>
<path d="M162.034 53.2727V62H160.76V53.2727H162.034Z" fill="#707070"/>
<path d="M165.022 53.2727V62H163.748V53.2727H165.022Z" fill="#707070"/>
<path d="M167.576 62.081C167.343 62.081 167.143 61.9986 166.975 61.8338C166.808 61.6662 166.724 61.4645 166.724 61.2287C166.724 60.9957 166.808 60.7969 166.975 60.6321C167.143 60.4645 167.343 60.3807 167.576 60.3807C167.809 60.3807 168.009 60.4645 168.177 60.6321C168.344 60.7969 168.428 60.9957 168.428 61.2287C168.428 61.3849 168.389 61.5284 168.309 61.6591C168.232 61.7869 168.13 61.8892 168.002 61.9659C167.874 62.0426 167.732 62.081 167.576 62.081Z" fill="#707070"/>
</svg>
