<svg width="75" height="24" viewBox="0 0 75 24" fill="none" xmlns="http://www.w3.org/2000/svg">
<path d="M8.84678 0C8.9139 0 8.97645 0.0107802 9.0335 0.0302466C9.4513 0.00152444 9.8792 0.14147 10.1986 0.450083L13.7279 3.85987C14.1175 4.23632 14.1175 4.84666 13.7279 5.22311L12.8945 6.02826L10.4468 8.49002V8.51203L10.3745 8.5848C9.89742 9.0648 9.91343 9.82757 10.4102 10.2885L10.863 10.7085L13.573 13.3268C13.9627 13.7033 13.9627 14.3136 13.573 14.6901L9.92055 18.2189C9.9184 18.221 9.91624 18.223 9.91408 18.2251C9.91195 18.2271 9.90981 18.2291 9.90766 18.2311C9.90299 18.2355 9.89827 18.2398 9.89353 18.2441L9.37774 18.7747C9.16734 19.0099 8.85636 19.1586 8.50941 19.1586H7.42011C7.36693 19.1647 7.31229 19.1679 7.25628 19.1679H1.37559C0.659247 19.1679 0.0785354 18.6068 0.0785356 17.9148L0.0785371 12.4595C0.0785375 11.3553 1.44952 10.7909 2.27392 11.5556L3.39409 12.5947H3.41291L4.05583 13.1912C4.55265 13.6521 5.34215 13.6367 5.81923 13.1567L8.62568 10.333C9.10276 9.85301 9.08675 9.09024 8.58993 8.62931L5.73023 5.97623C5.2334 5.51531 4.4439 5.53077 3.96683 6.01077L1.16038 8.83442C1.13735 8.8576 1.11546 8.88143 1.09473 8.90585L1.00789 8.99121C0.66508 9.32815 0.0717602 9.09629 0.0678014 8.62385L1.8372e-05 0.534468C-0.00244912 0.239992 0.24395 4.549e-07 0.548755 4.41531e-07L8.84678 0Z" fill="#E8E8E8"/>
<path d="M26.543 13.7761C26.543 14.1617 26.5173 14.5099 26.4658 14.8209H18.3359C18.4003 15.6418 18.7157 16.301 19.2822 16.7985C19.8486 17.296 20.5438 17.5448 21.3677 17.5448C22.5521 17.5448 23.3889 17.0659 23.8781 16.1082H26.2533C25.9315 17.0535 25.3457 17.8308 24.4961 18.4403C23.6593 19.0373 22.6165 19.3358 21.3677 19.3358C20.3507 19.3358 19.4367 19.1181 18.6256 18.6828C17.8274 18.2351 17.1966 17.6132 16.7332 16.8172C16.2826 16.0087 16.0573 15.0759 16.0573 14.0186C16.0573 12.9614 16.2761 12.0348 16.7138 11.2388C17.1644 10.4303 17.7888 9.80843 18.587 9.3731C19.398 8.93778 20.325 8.72012 21.3677 8.72012C22.3719 8.72012 23.2666 8.93156 24.0519 9.35445C24.8372 9.77733 25.4487 10.3743 25.8864 11.1455C26.3242 11.9042 26.543 12.7811 26.543 13.7761ZM24.245 13.1045C24.2322 12.3209 23.9425 11.6928 23.376 11.2201C22.8096 10.7475 22.108 10.5112 21.2712 10.5112C20.5116 10.5112 19.8615 10.7475 19.3208 11.2201C18.7801 11.6803 18.4582 12.3084 18.3553 13.1045H24.245Z" fill="#E8E8E8"/>
<path d="M38.2876 8.88803L31.7605 24H29.4819L31.6447 19L27.4542 8.88803H29.9067L32.8999 16.7239L36.0089 8.88803H38.2876Z" fill="#E8E8E8"/>
<path d="M44.5642 19.3358C43.56 19.3358 42.6524 19.1181 41.8413 18.6828C41.0303 18.2351 40.393 17.6132 39.9296 16.8172C39.4661 16.0087 39.2344 15.0759 39.2344 14.0186C39.2344 12.9739 39.4726 12.0472 39.9489 11.2388C40.4252 10.4303 41.0754 9.80843 41.8993 9.3731C42.7232 8.93778 43.6437 8.72012 44.6607 8.72012C45.6777 8.72012 46.5982 8.93778 47.4221 9.3731C48.2461 9.80843 48.8962 10.4303 49.3725 11.2388C49.8489 12.0472 50.087 12.9739 50.087 14.0186C50.087 15.0634 49.8424 15.99 49.3532 16.7985C48.864 17.607 48.1946 18.2351 47.3449 18.6828C46.5081 19.1181 45.5812 19.3358 44.5642 19.3358ZM44.5642 17.4888C45.1306 17.4888 45.6584 17.3582 46.1476 17.097C46.6497 16.8358 47.0552 16.444 47.3642 15.9216C47.6732 15.3992 47.8277 14.7649 47.8277 14.0186C47.8277 13.2724 47.6796 12.6443 47.3835 12.1343C47.0874 11.6119 46.6948 11.2201 46.2056 10.9589C45.7164 10.6977 45.1885 10.5671 44.6221 10.5671C44.0556 10.5671 43.5278 10.6977 43.0386 10.9589C42.5623 11.2201 42.1825 11.6119 41.8993 12.1343C41.6161 12.6443 41.4744 13.2724 41.4744 14.0186C41.4744 15.1256 41.7641 15.9838 42.3434 16.5933C42.9356 17.1903 43.6759 17.4888 44.5642 17.4888Z" fill="#E8E8E8"/>
<path d="M57.6316 8.72012C58.4684 8.72012 59.2151 8.88803 59.8717 9.22385C60.5411 9.55967 61.0625 10.0572 61.4359 10.7164C61.8092 11.3756 61.9959 12.1716 61.9959 13.1045V19.1679H59.8138V13.4216C59.8138 12.5012 59.5756 11.7985 59.0993 11.3134C58.6229 10.8159 57.9728 10.5671 57.1489 10.5671C56.325 10.5671 55.6684 10.8159 55.1792 11.3134C54.7028 11.7985 54.4647 12.5012 54.4647 13.4216V19.1679H52.2633V8.88803H54.4647V10.0634C54.8251 9.64052 55.2822 9.31091 55.8357 9.0746C56.4022 8.83828 57.0008 8.72012 57.6316 8.72012Z" fill="#E8E8E8"/>
<path d="M64.0701 13.9813C64.0701 12.949 64.289 12.0348 64.7267 11.2388C65.1773 10.4428 65.7823 9.82708 66.5419 9.39176C67.3143 8.944 68.1704 8.72012 69.1102 8.72012C69.8054 8.72012 70.4877 8.86937 71.1572 9.16788C71.8395 9.45395 72.3802 9.83952 72.7793 10.3246V5.3619H75V19.1679H72.7793V17.6194C72.4188 18.1169 71.9167 18.5274 71.273 18.8507C70.6422 19.1741 69.9148 19.3358 69.0909 19.3358C68.164 19.3358 67.3143 19.1119 66.5419 18.6642C65.7823 18.204 65.1773 17.5696 64.7267 16.7612C64.289 15.9403 64.0701 15.0137 64.0701 13.9813ZM72.7793 14.0186C72.7793 13.3097 72.6248 12.694 72.3158 12.1716C72.0197 11.6492 71.6271 11.2512 71.1378 10.9776C70.6486 10.704 70.1208 10.5671 69.5544 10.5671C68.9879 10.5671 68.4601 10.704 67.9709 10.9776C67.4817 11.2388 67.0826 11.6306 66.7736 12.153C66.4775 12.6629 66.3295 13.2724 66.3295 13.9813C66.3295 14.6903 66.4775 15.3122 66.7736 15.847C67.0826 16.3818 67.4817 16.7923 67.9709 17.0783C68.473 17.352 69.0008 17.4888 69.5544 17.4888C70.1208 17.4888 70.6486 17.352 71.1378 17.0783C71.6271 16.8047 72.0197 16.4067 72.3158 15.8843C72.6248 15.3495 72.7793 14.7276 72.7793 14.0186Z" fill="#E8E8E8"/>
</svg>
